<?xml version="1.0" standalone="no"?>
<!DOCTYPE svg PUBLIC "-//W3C//DTD SVG 1.1//EN" "http://www.w3.org/Graphics/SVG/1.1/DTD/svg11.dtd" >
<svg xmlns="http://www.w3.org/2000/svg">
<metadata>Generated by IcoMoon</metadata>
<defs>
<font id="icons" horiz-adv-x="1024">
<font-face units-per-em="1024" ascent="960" descent="-64" />
<missing-glyph horiz-adv-x="1024" />
<glyph unicode="&#x20;" horiz-adv-x="512" d="" />
<glyph unicode="&#xe900;" glyph-name="button-bag" horiz-adv-x="860" d="M86 17.9l24.6 606.2h98.3v-81.9h81.9v81.9h266.2v-81.9h82v81.9h98.3l36.9-606.2c-0.1 0-688.2 0-688.2 0zM290.8 747c0 73.7 57.3 131.1 135.2 131.1 73.7 0 135.2-57.3 135.2-131.1v-45h-270.4v45zM819.2 665.1c0 20.5-20.5 36.9-41 36.9h-139.2v45c0 114.7-98.3 213-217.1 213s-213-94.2-213-213v-45h-139.3c-20.5 0-41-16.4-41-41l-28.6-684c0-12.3 4.1-20.5 12.3-28.7s16.4-12.3 28.7-12.3h778.2c12.3 0 20.5 4.1 28.7 12.3s12.3 20.5 12.3 28.7l-41 688.1z" />
<glyph unicode="&#xe901;" glyph-name="cross-small" d="M634.88 448l368.64 368.64c20.48 40.96 20.48 81.92 0 122.88 0 0 0 0 0 0-40.96 20.48-102.4 20.48-143.36 0l-348.16-368.64-348.16 368.64c-40.96 20.48-102.4 20.48-122.88 0-40.96-20.48-40.96-81.92-20.48-102.4 0 0 0 0 0 0l368.64-368.64-368.64-389.12c-20.48-40.96-20.48-81.92 0-122.88 0 0 0 0 0 0 20.48-20.48 40.96-20.48 61.44-20.48s40.96 0 61.44 20.48l348.16 368.64 348.16-368.64c40.96-20.48 61.44-20.48 102.4-20.48 20.48 0 40.96 0 61.44 20.48s40.96 81.92 0 102.4c0 0 0 0 0 0l-368.64 389.12z" />
<glyph unicode="&#xe902;" glyph-name="cross" horiz-adv-x="994" d="M580.069 450.96l396.578 390.659c17.757 17.757 17.757 53.272 0 71.029s-53.272 17.757-71.029 0l-396.578-390.659-420.254 426.173c-17.757 17.757-53.272 17.757-71.029 0v0c-17.757-17.757-17.757-53.272 0-71.029l426.173-426.173-426.173-426.173c-17.757-17.757-17.757-53.272 0-71.029s53.272-17.757 71.029 0l426.173 426.173 396.578-396.578c17.757-17.757 53.272-17.757 71.029 0v0c17.757 17.757 17.757 53.272 0 71.029l-402.497 396.578z" />
<glyph unicode="&#xe903;" glyph-name="map-location" horiz-adv-x="672" d="M592.986 616.071c0 146.267-114.6 264.89-256.973 264.89s-256.973-118.623-256.973-264.89 83.062-288.641 256.973-430.885c174.041 150.161 256.973 292.534 256.973 430.885zM0 616.071c0 189.745 150.29 343.929 336.012 343.929s336.012-154.184 336.012-343.929c0-177.935-110.706-351.846-336.012-529.78-225.306 165.994-336.012 340.035-336.012 529.78zM336.012 446.053c-86.956 0-158.078 75.145-158.078 162.101s71.122 162.101 158.078 162.101 158.078-75.145 158.078-162.101-71.122-162.101-158.078-162.101zM256.973 612.048c0-47.501 35.561-83.062 79.039-83.062s79.039 35.561 79.039 83.062-35.561 83.062-79.039 83.062c-43.478 0-79.039-39.584-79.039-83.062zM549.508 137.685c31.667-15.834 47.501-31.667 47.501-43.478 0-39.584-114.6-83.062-260.867-83.062s-260.867 47.501-260.867 83.062c0 11.81 11.81 27.644 39.584 39.584 15.834 7.917 23.751 31.667 15.834 51.395-7.917 15.834-31.667 23.751-47.501 15.834-51.524-27.774-79.298-63.335-79.298-106.813 0-94.872 150.29-158.207 332.119-158.207s332.119 63.205 332.119 158.078c0 43.478-31.667 83.062-86.956 110.706-19.727 7.917-39.584 0-47.501-15.834-7.917-19.597 0-39.454 15.834-51.265z" />
<glyph unicode="&#xe904;" glyph-name="pinterest" d="M512 960c-283.927 0-512-228.073-512-512 0-218.764 134.982-400.291 325.818-474.764-4.655 41.891-9.309 102.4 0 148.945 9.309 41.891 60.509 256 60.509 256s-13.964 23.273-13.964 69.818c0 69.818 41.891 125.673 93.091 125.673 41.891 0 65.164-32.582 65.164-74.473s-27.927-111.709-41.891-172.218c-13.964-51.2 23.273-93.091 74.473-93.091 93.091 0 162.909 97.745 162.909 232.727-4.655 130.327-88.436 214.109-214.109 214.109-144.291 0-232.727-107.055-232.727-223.418 0-41.891 18.618-93.091 37.236-116.364 4.655-4.655 4.655-9.309 4.655-13.964-4.655-13.964-13.964-51.2-13.964-55.855 0-9.309-9.309-9.309-18.618-4.655-65.164 23.273-102.4 121.018-102.4 195.491 0 162.909 116.364 311.855 339.782 311.855 176.873 0 316.509-125.673 316.509-297.891 0-176.873-111.709-316.509-265.309-316.509-51.2 0-102.4 27.927-116.364 60.509l-32.582-121.018c-9.309-46.545-41.891-102.4-65.164-134.982 46.545-13.964 97.745-23.273 153.6-23.273 283.927 0 512 228.073 512 512s-232.727 507.345-516.655 507.345z" />
<glyph unicode="&#xe905;" glyph-name="search-icon" d="M1009.778 26.074l-213.333 213.333c56.889 75.852 94.815 170.667 94.815 274.963 0 246.519-199.111 445.63-445.63 445.63 0 0 0 0 0 0-246.519 0-445.63-199.111-445.63-445.63s199.111-445.63 445.63-445.63c104.296 0 199.111 33.185 274.963 94.815l213.333-213.333c23.704-18.963 56.889-18.963 75.852 0 18.963 23.704 18.963 56.889 0 75.852zM109.037 514.37c0 184.889 151.704 336.593 336.593 336.593 0 0 0 0 0 0 184.889 0 336.593-151.704 336.593-336.593s-151.704-336.593-336.593-336.593c-184.889 0-336.593 151.704-336.593 336.593z" />
<glyph unicode="&#xe906;" glyph-name="twitter" horiz-adv-x="1280" d="M1280 837.12c-46.080-20.48-97.28-35.84-148.48-40.96 56.32 30.72 97.28 81.92 117.76 143.36-51.2-30.72-107.52-51.2-168.96-61.44-51.2 51.2-117.76 81.92-189.44 81.92-143.36 0-261.12-117.76-261.12-261.12 0-20.48 0-40.96 5.12-61.44-215.040 15.36-409.6 112.64-547.84 276.48-20.48-40.96-35.84-87.040-35.84-133.12 0-87.040 51.2-168.96 117.76-215.040-40.96 5.12-81.92 15.36-117.76 35.84v-5.12c0-122.88 92.16-230.4 209.92-256-40.96-10.24-76.8-10.24-117.76-5.12 35.84-102.4 128-179.2 245.76-179.2-92.16-71.68-209.92-112.64-327.68-112.64-20.48 0-40.96 0-61.44 5.12 122.88-71.68 261.12-112.64 404.48-112.64 481.28 0 747.52 394.24 747.52 737.28 0 10.24 0 20.48 0 35.84 46.080 30.72 92.16 76.8 128 128z" />
<glyph unicode="&#xe907;" glyph-name="unilever-logo" horiz-adv-x="924" d="M321.255 112.69c0 0 0 0 0 0 0-12.047 8.031-16.063 20.078-16.063s24.094 12.047 20.078 24.094c0 8.031-8.031 16.063-20.078 16.063s-20.078-12.047-20.078-24.094zM895.498 56.471c-52.204 0-60.235-76.298-68.267-76.298-12.047 0-8.031 60.235-20.078 60.235-8.031 0-12.047-12.047-16.063-16.063-8.031-28.11-28.11-68.267-56.22-68.267-8.031 0-20.078 4.016-20.078 8.031s16.063 8.031 28.11 16.063c-4.016-4.016-12.047-4.016-20.078-4.016-4.016 8.031-8.031 40.157 20.078 40.157 8.031 0 12.047-4.016 16.063-8.031 0 0 0 4.016 0 4.016 0 12.047-12.047 32.125-32.125 32.125-24.094 0-48.188-28.11-48.188-64.251 0-32.125 20.078-44.173 40.157-44.173 36.141 0 56.22 28.11 68.267 56.22 4.016-16.063 8.031-56.22 24.094-56.22 4.016 0 8.031 4.016 16.063 16.063 16.063 36.141 32.125 80.314 52.204 80.314 8.031 0 4.016-16.063 24.094-16.063 8.031 0 16.063 8.031 16.063 16.063 4.016 16.063-8.031 24.094-24.094 24.094zM742.902-19.827c8.031 4.016 16.063 8.031 20.078 16.063 0 4.016 0 8.031 0 12.047-4.016-12.047-12.047-20.078-20.078-28.11zM164.643 361.663c32.125 52.204-60.235 48.188-28.11 108.424 8.031-16.063 16.063-16.063 36.141-16.063-12.047 8.031-16.063 16.063-16.063 24.094 0 16.063 16.063 44.173 28.11 60.235 12.047 24.094 28.11 60.235 28.11 76.298 0 8.031-4.016 8.031-4.016 8.031-4.016 4.016-8.031 0-12.047-8.031-4.016-16.063-20.078-48.188-28.11-48.188 0 0-4.016 0-4.016 4.016 0 12.047 20.078 52.204 20.078 64.251 0 4.016 0 8.031-4.016 8.031-12.047 0-24.094-64.251-32.125-64.251-4.016 0-4.016 0-4.016 8.031 0 12.047 8.031 28.11 8.031 44.173 4.016 0 8.031 0 8.031 0-12.047 8.031-16.063 16.063-16.063 24.094 0 4.016 0 8.031 4.016 12.047-12.047 0-28.11-8.031-28.11-24.094 0-8.031 8.031-12.047 16.063-16.063-8.031-16.063-8.031-48.188-16.063-48.188-4.016 0-8.031 0-8.031 16.063 0 12.047 0 20.078 0 24.094s0 4.016-4.016 4.016c-8.031 0-16.063-32.125-16.063-64.251 0-36.141 8.031-56.22 16.063-56.22s24.094 20.078 24.094 28.11c0 4.016-4.016 4.016-4.016 8.031-8.031 12.047 0 24.094 4.016 24.094 8.031 0 8.031-8.031 20.078-16.063 4.016-4.016 4.016-8.031 4.016-12.047 0-20.078-48.188-48.188-48.188-96.376 4.016-56.22 48.188-64.251 56.22-76.298zM136.533 96.627c-8.031-4.016-20.078-12.047-16.063-28.11 0-8.031 8.031-16.063 8.031-20.078v0c4.016-8.031 8.031-20.078 0-44.173-4.016-32.125-20.078-52.204-52.204-52.204-20.078 0-40.157 12.047-40.157 48.188-4.016 32.125 0 44.173 8.031 72.282 4.016 12.047 4.016 24.094-8.031 20.078-16.063-4.016-20.078-8.031-24.094-24.094-12.047-24.094-12.047-44.173-12.047-64.251 4.016-40.157 24.094-68.267 76.298-68.267 60.235 0 80.314 44.173 84.329 84.329 0 28.11 0 48.188-4.016 64.251-4.016 8.031-8.031 16.063-20.078 12.047zM674.635 52.455c-12.047 0-20.078-16.063-20.078-32.125s4.016-16.063 4.016-28.11c0-16.063-8.031-32.125-16.063-32.125-20.078 0-28.11 84.329-40.157 84.329-8.031 0-12.047-8.031-12.047-16.063-12.047-36.141-28.11-72.282-56.22-72.282-8.031 0-12.047 4.016-16.063 8.031 20.078 12.047 36.141 28.11 36.141 44.173s-8.031 36.141-24.094 36.141c-20.078 0-44.173-32.125-44.173-68.267 0-4.016 0-12.047 4.016-16.063 0-4.016-8.031-4.016-12.047-4.016-16.063 0-28.11 16.063-32.125 24.094 12.047 24.094 32.125 52.204 28.11 116.455 0 24.094-16.063 40.157-28.11 40.157-20.078 0-40.157-52.204-36.141-104.408 0-12.047 4.016-40.157 12.047-52.204-12.047-16.063-24.094-20.078-32.125-20.078-12.047 0-28.11 8.031-28.11 32.125 8.031 24.094 4.016 48.188-8.031 48.188-16.063 0-20.078-28.11-20.078-48.188-4.016-12.047-12.047-20.078-20.078-20.078-24.094 0-24.094 76.298-44.173 76.298-16.063 0-40.157-48.188-48.188-48.188-4.016 0-8.031 12.047-12.047 28.11 0 4.016 0 8.031-4.016 8.031s-12.047-4.016-12.047-8.031c-4.016-4.016-8.031-24.094-12.047-40.157-12.047-12.047-20.078-32.125-20.078-40.157 0-4.016 0-8.031 8.031-8.031 12.047 0 60.235 60.235 76.298 60.235 20.078 0 24.094-60.235 48.188-60.235 12.047 0 24.094 36.141 32.125 36.141s12.047-36.141 40.157-36.141c32.125 0 44.173 20.078 52.204 20.078s16.063-20.078 36.141-20.078c12.047 0 24.094 4.016 36.141 12.047 8.031-8.031 16.063-12.047 24.094-12.047 52.204 0 68.267 48.188 76.298 48.188s8.031-48.188 36.141-48.188c36.141 0 60.235 64.251 60.235 100.392-4.016 4.016-8.031 12.047-12.047 12.047zM413.616 16.314c-4.016 0-8.031 4.016-12.047 20.078-4.016 28.11 4.016 56.22 20.078 60.235 12.047 0 16.063-4.016 20.078-16.063v0c4.016-28.11-20.078-64.251-28.11-64.251zM493.929-23.843c-4.016 4.016-12.047 8.031-12.047 20.078 0 16.063 16.063 20.078 24.094 20.078s16.063-8.031 16.063-16.063c0-8.031-8.031-20.078-28.11-24.094zM762.98 739.137c4.016-24.094 56.22-56.22 68.267-52.204 8.031 0 12.047 32.125 12.047 52.204 0 12.047 0 24.094-8.031 28.11-16.063-24.094-56.22-32.125-72.282-28.11zM702.745 373.71c-4.016 4.016-12.047 8.031-12.047 20.078 0 8.031 4.016 12.047 4.016 12.047-4.016 0-4.016 0-8.031 0-36.141 0-28.11-32.125-68.267-44.173-8.031 0-8.031-4.016-8.031-8.031 0-8.031 4.016-16.063 8.031-16.063 20.078 0 48.188 40.157 52.204 40.157v0c4.016 0 4.016 0 4.016-4.016 0-12.047-24.094-24.094-36.141-36.141-4.016 0-4.016 0-8.031 0-28.11 0-40.157-12.047-40.157-16.063v-4.016c0-4.016 16.063-12.047 36.141-12.047 16.063 0 32.125 4.016 40.157 12.047 0 0 4.016 4.016 4.016 4.016 16.063 8.031 32.125 40.157 36.141 40.157s4.016-4.016 4.016-4.016c0-12.047-12.047-32.125-36.141-44.173-4.016-4.016-4.016-4.016-4.016-8.031s8.031-12.047 12.047-12.047c8.031 0 52.204 40.157 52.204 76.298 0 4.016 0 8.031-4.016 12.047-4.016-4.016-8.031-8.031-16.063-8.031-8.031-4.016-8.031 0-12.047 0zM550.149 646.776c0-11.089-8.989-20.078-20.078-20.078s-20.078 8.989-20.078 20.078c0 11.089 8.989 20.078 20.078 20.078s20.078-8.989 20.078-20.078zM297.161 735.122c0 4.016 0 4.016 0 8.031 4.016 12.047 8.031 16.063 12.047 16.063 0 0 0 0 0 0s0 0 0 0 0 0 4.016 0c0 16.063-4.016 28.11-16.063 36.141 0-16.063-20.078-72.282-36.141-72.282-4.016 0-4.016 4.016-4.016 4.016 0 12.047 16.063 60.235 32.125 72.282-4.016 0-8.031 4.016-12.047 4.016-20.078 0-36.141-12.047-40.157-32.125 0 4.016 8.031 8.031 12.047 8.031s8.031-4.016 8.031-12.047c0-4.016 0-12.047-4.016-16.063-4.016-16.063-8.031-20.078-12.047-20.078 0 0 0 0 0 0 0 4.016-4.016 8.031-8.031 12.047 0 8.031 0 12.047-4.016 12.047s-4.016-4.016-8.031-8.031c-12.047 0-20.078-8.031-20.078-20.078s8.031-20.078 20.078-20.078c4.016 0 8.031 0 8.031 4.016 4.016-4.016 8.031-4.016 12.047-8.031-8.031-4.016-8.031-8.031-8.031-20.078 0-4.016 0-8.031 0-12.047 0 8.031 8.031 8.031 12.047 8.031 12.047 0 28.11-8.031 36.141-24.094-12.047 4.016-20.078 4.016-32.125 4.016-4.016 0-12.047 0-16.063-4.016-4.016 0-16.063-16.063-16.063-32.125 0-4.016 0-8.031 0-8.031 8.031 24.094 36.141 32.125 52.204 32.125 4.016 0 8.031 0 8.031 0-8.031-12.047-8.031-24.094-12.047-36.141 0-4.016-4.016-4.016-4.016-4.016 0-8.031 8.031-24.094 8.031-32.125 0-4.016 0-4.016-4.016-4.016 0-12.047 12.047-24.094 12.047-32.125 0-4.016 0-4.016 0-4.016 0-4.016 16.063-16.063 16.063-20.078 4.016-4.016 4.016-8.031 8.031-8.031s4.016 0 8.031 4.016c0-4.016 0-4.016 0-8.031 0-28.11 32.125-56.22 64.251-56.22 4.016 0 8.031 0 12.047 0 8.031-4.016 12.047-8.031 12.047-16.063s-12.047-16.063-28.11-16.063c-20.078 0-32.125 4.016-44.173 16.063-4.016 4.016-4.016 8.031-8.031 8.031s-8.031-8.031-8.031-16.063c0-28.11 24.094-60.235 60.235-60.235 8.031 0 16.063 0 20.078 4.016 0 0 0 0 0 4.016s0 8.031 0 12.047c0 12.047 4.016 8.031 16.063 16.063 8.031 4.016 12.047 8.031 16.063 8.031 0 0 4.016 0 4.016 0 0 4.016 4.016 12.047 4.016 16.063 0 16.063-4.016 28.11-28.11 36.141-12.047 4.016-16.063 12.047-20.078 28.11-4.016-8.031-8.031-16.063-8.031-20.078 0-8.031 4.016-12.047 8.031-12.047-12.047 4.016-20.078 16.063-20.078 28.11 0 20.078 24.094 36.141 24.094 52.204 0 20.078-24.094 20.078-24.094 36.141 0 12.047 24.094 24.094 24.094 44.173 0 8.031-4.016 16.063-12.047 20.078 4.016 4.016 8.031 12.047 8.031 20.078-4.016 16.063-16.063 24.094-32.125 24.094s-32.125-8.031-48.188-20.078c8.031 16.063 12.047 24.094 20.078 24.094 0 0 4.016 0 4.016 0-4.016 12.047-16.063 28.11-20.078 28.11-12.047 0-12.047-16.063-12.047-48.188-12.047 16.063-20.078 32.125-36.141 40.157 16.063 0 28.11 8.031 40.157 20.078 0 0 0 4.016 0 4.016 0 4.016 0 4.016 0 8.031zM337.318 654.808c20.078 0 28.11-4.016 32.125-20.078-4.016 8.031-12.047 12.047-20.078 16.063 4.016-4.016 4.016-12.047 8.031-16.063 0-8.031-8.031-16.063-16.063-24.094 0 4.016 4.016 4.016 4.016 8.031 0 12.047-4.016 24.094-36.141 28.11 8.031 8.031 20.078 8.031 28.11 8.031zM293.145 642.761c16.063-12.047 20.078-24.094 20.078-36.141 0-4.016 0-8.031 0-12.047-4.016-4.016-4.016-8.031-4.016-12.047 0-24.094 44.173-36.141 44.173-44.173 0-4.016-4.016-4.016-8.031-4.016s-16.063 4.016-24.094 12.047c-4.016-4.016-12.047-12.047-12.047-20.078 0 0 0 0 0 0-4.016 4.016-8.031 12.047-12.047 20.078-4.016 0-4.016 0-4.016 4.016 0 8.031 0 16.063-4.016 24.094-4.016 0-4.016 4.016-4.016 12.047 0 4.016 4.016 20.078 4.016 24.094 0 0-4.016 0-4.016 4.016-4.016 8.031 8.031 16.063 8.031 28.11zM136.533 827.482c-12.047 0-16.063-8.031-16.063-16.063 0-16.063 20.078-24.094 36.141-24.094 0 4.016 4.016 8.031 4.016 12.047 0 12.047-8.031 28.11-24.094 28.11zM180.706 666.855c12.047 0 20.078 8.031 20.078 16.063 0 12.047-16.063 20.078-28.11 24.094-8.031-4.016-12.047-12.047-12.047-20.078 0-12.047 8.031-20.078 20.078-20.078zM698.729 409.851c0 0-4.016 0-4.016 0 16.063-4.016 28.11-12.047 32.125-32.125 0 0 4.016 4.016 4.016 8.031 0 8.031-16.063 24.094-32.125 24.094zM200.784 767.247c0-11.089-8.989-20.078-20.078-20.078s-20.078 8.989-20.078 20.078c0 11.089 8.989 20.078 20.078 20.078s20.078-8.989 20.078-20.078zM766.996 534.337c8.031 0 12.047-12.047 12.047-20.078 0 0 0-4.016 0-4.016 12.047 12.047 20.078 32.125 20.078 44.173 0 8.031-4.016 16.063-8.031 16.063-12.047 0-20.078-24.094-32.125-24.094 8.031 36.141 40.157 52.204 40.157 84.329 0 36.141-28.11 48.188-40.157 56.22-20.078 32.125-36.141 56.22-64.251 56.22-12.047 0-20.078-4.016-32.125-4.016-16.063 0-24.094 8.031-24.094 8.031s0 0 0 0c0-12.047 4.016-28.11 8.031-44.173-8.031-4.016-12.047-8.031-12.047-20.078s8.031-20.078 20.078-20.078c8.031 0 12.047 4.016 16.063 8.031 8.031-8.031 24.094-16.063 40.157-16.063 28.11 0 44.173 12.047 48.188 12.047 8.031 0 32.125-8.031 32.125-40.157 0-16.063-12.047-36.141-16.063-36.141s-8.031 8.031-8.031 16.063c0 8.031 4.016 24.094 4.016 36.141 0 4.016 0 4.016-4.016 4.016s-28.11-16.063-28.11-36.141c0-16.063 24.094-28.11 32.125-32.125-8.031-16.063-12.047-24.094-16.063-40.157v0c0 12.047-8.031 32.125-12.047 44.173-20.078 48.188-24.094 56.22-52.204 60.235 4.016-16.063 56.22-60.235 56.22-104.408 0-4.016 0-8.031 0-8.031-16.063 52.204-40.157 60.235-52.204 72.282-12.047 16.063-8.031 32.125-20.078 40.157 0 8.031-8.031 16.063-20.078 16.063s-20.078-8.031-20.078-20.078c0-12.047 8.031-20.078 20.078-20.078 4.016 0 4.016 0 8.031 0 0 0 0-4.016 0-4.016-4.016 0-4.016 0-8.031 0-12.047 0-20.078-8.031-20.078-20.078v0c0 0 0 0 0 0 0-12.047 8.031-20.078 20.078-20.078 0 0 0 0 0 0 8.031 0 12.047 4.016 16.063 12.047 12.047-4.016 28.11-8.031 40.157-16.063 20.078-16.063 28.11-44.173 36.141-72.282 4.016 24.094 8.031 36.141 20.078 36.141zM758.965 678.902c0 0 0-4.016 0 0-4.016 0-8.031 0-12.047 0-8.031 0-16.063-8.031-20.078-8.031 0 0-4.016 0-4.016 4.016s8.031 8.031 8.031 12.047c0 0-4.016 4.016-4.016 4.016-8.031 0-20.078-8.031-28.11-8.031 0 0-4.016 0-4.016 0 0 4.016 8.031 8.031 8.031 8.031 0 4.016-4.016 4.016-8.031 4.016s-12.047 0-16.063 0c-4.016 0-4.016 0-4.016 4.016s16.063 0 16.063 8.031c0 4.016-4.016 8.031-4.016 8.031s0 0 4.016 0 12.047-12.047 20.078-12.047c4.016 0 4.016 0 4.016 4.016s0 4.016 0 8.031 0 4.016 4.016 4.016 8.031-20.078 20.078-20.078c4.016 0 0 12.047 4.016 12.047s4.016-4.016 4.016-4.016c0-24.094 12.047-24.094 12.047-28.11v0zM610.384 666.855c12.047 0 20.078 8.031 20.078 20.078s-8.031 20.078-16.063 20.078c8.031 0 16.063 8.031 16.063 20.078 0 0 0 0 0 0 0 12.047-8.031 20.078-20.078 20.078s-20.078-8.031-20.078-20.078v0c0-12.047 8.031-20.078 16.063-20.078-8.031 0-16.063-8.031-16.063-20.078s12.047-20.078 20.078-20.078c-12.047 0-20.078-8.031-20.078-20.078s12.047-20.078 20.078-20.078c12.047 0 20.078 8.031 20.078 20.078 0 8.031-8.031 20.078-20.078 20.078zM100.392 747.169c12.047 0 20.078 4.016 20.078 4.016v0c-16.063 8.031-28.11 16.063-28.11 32.125 0 0 0 4.016 0 4.016-8.031-4.016-12.047-12.047-12.047-20.078 0-12.047 8.031-20.078 20.078-20.078zM630.463 606.62c0-11.089-8.989-20.078-20.078-20.078s-20.078 8.989-20.078 20.078c0 11.089 8.989 20.078 20.078 20.078s20.078-8.989 20.078-20.078zM590.306 686.933c0-11.089-8.989-20.078-20.078-20.078s-20.078 8.989-20.078 20.078c0 11.089 8.989 20.078 20.078 20.078s20.078-8.989 20.078-20.078zM570.227 666.855c0 0 0 0 0 0-12.047 0-20.078-8.031-20.078-20.078 0 0 0 0 0 0 0-12.047 8.031-20.078 20.078-20.078s20.078 8.031 20.078 20.078c0 0 0 0 0 0 0 4.016 0 4.016 0 8.031-4.016 4.016-8.031 12.047-20.078 12.047 0 0 0 0 0 0s0 0 0 0zM550.149 686.933c0 12.047-8.031 20.078-20.078 20.078 0 0 0 0 0 0 0 4.016 4.016 8.031 4.016 8.031s8.031-4.016 20.078-4.016c20.078 0 40.157 16.063 40.157 52.204 0 0 0 4.016 0 8.031 0 0 0 4.016 0 4.016 0 4.016 0 4.016-4.016 4.016 0 4.016 0 4.016-4.016 4.016 0-4.016 0-4.016 0-4.016-4.016 0-4.016 0-8.031 0s-12.047 8.031-32.125 8.031c-24.094 0-36.141-12.047-36.141-20.078 0 0 0-4.016 0-4.016 0-4.016 0-12.047 0-16.063 0-16.063 4.016-32.125 8.031-36.141-8.031-4.016-16.063-8.031-16.063-20.078s8.031-20.078 20.078-20.078c20.078-4.016 28.11 4.016 28.11 16.063zM526.055 771.263c0 0 0 0 0 0v0c0 0 0 0 0 0zM546.133 767.247c4.016 0 16.063 0 16.063-4.016-4.016 0-8.031-4.016-8.031-8.031 0 0 0-4.016 4.016-4.016 8.031-4.016 12.047-4.016 16.063-8.031-4.016-4.016-8.031-4.016-12.047-4.016s-8.031 0-12.047 4.016c4.016 4.016 4.016 8.031 4.016 12.047s0 4.016-4.016 4.016c0 0-4.016 0-8.031 0s-8.031 4.016-12.047 4.016c4.016 4.016 12.047 4.016 16.063 4.016zM493.929 305.443c0 4.016 0 4.016 0 0-4.016 0-8.031 4.016-12.047 4.016s-12.047 0-16.063-4.016c-4.016 4.016-16.063 16.063-28.11 20.078-4.016-24.094-28.11-44.173-60.235-48.188 0-16.063-16.063-20.078-24.094-20.078s-20.078 4.016-20.078 4.016c-4.016 24.094-20.078 36.141-28.11 40.157 0-4.016 0-4.016 0-8.031 0-20.078-12.047-32.125-40.157-32.125-4.016 0-8.031 0-12.047 0 28.11-32.125 48.188-20.078 64.251-28.11s32.125-32.125 88.345-32.125c20.078 0 40.157 8.031 56.22 16.063 4.016-8.031 12.047-16.063 24.094-16.063 24.094 0 36.141 8.031 36.141 12.047 0 0 0 4.016-4.016 4.016s-4.016 0-16.063 0v0c-16.063 0-40.157 8.031-52.204 32.125 0 4.016-4.016 4.016-8.031 4.016-8.031 0-20.078-28.11-68.267-28.11-20.078 0-28.11 8.031-28.11 8.031s0 0 0 0 8.031 0 20.078 0c28.11 0 52.204 12.047 68.267 32.125 4.016 4.016 8.031 8.031 12.047 8.031s8.031-4.016 8.031-8.031c8.031-16.063 24.094-32.125 40.157-32.125 24.094 0 24.094 40.157 28.11 40.157 0 0 4.016 0 4.016 0 4.016 0 8.031 0 8.031 8.031 0 4.016-4.016 4.016-4.016 8.031-4.016-4.016-8.031-8.031-16.063-8.031-8.031 4.016-20.078 16.063-20.078 24.094zM120.471 735.122c0-12.047 12.047-28.11 28.11-28.11 4.016 0 4.016 0 4.016 0 4.016 0 4.016 4.016 4.016 4.016s0 0 0 0c-12.047 8.031-24.094 16.063-24.094 32.125 0 4.016 0 4.016-4.016 4.016 0 0 0 0 4.016 0 0 0 0 0 0 0s0 0-4.016 0c0 0 0 0 0 0s0 0 0 0 0 0-4.016 0c0 0 0 0 4.016 0-4.016 0-8.031-4.016-8.031-12.047zM148.58 731.106v0c0-4.016 12.047-8.031 12.047-12.047 0 0 0 0 0 0 0 8.031-4.016 4.016-8.031 12.047-4.016 4.016-4.016 12.047-4.016 12.047s-4.016 0-8.031 4.016c0 0-4.016 0-4.016 0s0 0 0 0c4.016 0 4.016 0 8.031 0-4.016-4.016-4.016-12.047 4.016-16.063zM156.612 715.043c0 0 0 0 0 0s0 0 0 0 0 0 0 0zM160.627 719.059c0 0 0 0 0 0s0-4.016 0-4.016c0 0 0 4.016 0 4.016zM80.314 678.902c0-4.016 0-8.031 4.016-8.031 0 0 0 0 4.016 0 4.016-4.016 4.016-4.016 8.031-4.016s4.016 0 8.031 0 4.016 0 8.031 0 12.047 4.016 20.078 8.031c12.047 8.031 20.078 24.094 24.094 36.141 0 0-4.016 0-4.016 0s-4.016 0-4.016 0c0 0 0 0 0 0s0 0-4.016 0c-12.047-4.016-24.094 8.031-24.094 20.078 0 0 0 4.016 0 4.016s0 4.016 0 4.016 0 8.031 4.016 8.031c-4.016 0-12.047-4.016-20.078-12.047-16.063-8.031-20.078-24.094-20.078-36.141-4.016 4.016-4.016 4.016-4.016 8.031v0c0-4.016 0-4.016 0-8.031s0-12.047 0-16.063c0 0 0 0 0-4.016 0 0 0 0 0 0zM192.753 385.757v0 0zM100.392 646.776c-8.031 0-16.063 4.016-20.078 20.078 0-28.11 4.016-40.157 12.047-40.157s16.063 8.031 28.11 24.094c-8.031-4.016-16.063-4.016-20.078-4.016zM244.957 277.333c40.157 0 48.188 28.11 48.188 48.188 0 44.173-24.094 72.282-56.22 72.282 0 0 0 0 0 0 4.016 4.016 4.016 8.031 4.016 16.063 0 4.016 0 4.016 0 8.031 0 0 0 0 4.016 0s4.016 4.016 8.031 4.016c4.016-4.016 8.031-4.016 20.078-8.031 24.094-8.031 36.141-20.078 36.141-36.141 4.016-16.063 4.016-28.11 12.047-36.141s20.078-16.063 32.125-16.063c4.016 0 4.016 0 8.031 0-12.047 4.016-28.11 16.063-28.11 28.11 0 8.031 4.016 12.047 12.047 12.047s28.11-16.063 28.11-28.11c0 0 0 4.016 0 4.016 0 12.047-12.047 40.157-36.141 40.157 0 0-4.016 0-8.031 0s-8.031 0-8.031 4.016-8.031 28.11-16.063 44.173c-12.047 4.016-24.094 8.031-36.141 12.047 8.031 4.016 12.047 12.047 16.063 20.078 0 0 0 0 0 0 0 28.11-56.22 68.267-56.22 108.424 0 8.031 0 20.078 8.031 28.11-36.141-20.078-48.188-48.188-48.188-76.298 0-20.078 0-32.125-12.047-32.125-8.031 0-8.031 4.016-8.031 4.016s-4.016-4.016-4.016-4.016c0-8.031 8.031-16.063 16.063-16.063 12.047 0 20.078 8.031 20.078 24.094v24.094c0 8.031 0 20.078 8.031 28.11 0-4.016 0-8.031 0-12.047 0-20.078 12.047-36.141 12.047-56.22 0-8.031-4.016-12.047-8.031-12.047-8.031 0-4.016 4.016-8.031 4.016-4.016 8.031-4.016 4.016-4.016 0s0-8.031 4.016-8.031c-8.031-4.016-16.063-12.047-12.047-20.078 0 0 0-4.016 0-8.031h-4.016c-8.031 0-16.063-12.047-16.063-24.094s8.031-20.078 20.078-16.063c4.016 0 8.031 0 8.031 4.016 0-8.031 8.031-12.047 12.047-16.063-4.016-4.016-12.047-16.063-12.047-24.094 0 0 0 0 0 0 0-20.078 16.063-48.188 44.173-48.188 16.063 0 24.094 12.047 24.094 24.094s-12.047 32.125-28.11 32.125c-4.016 0-8.031-4.016-8.031-8.031 0-8.031 8.031-12.047 20.078-12.047 0 0 4.016 0 4.016 0s0-4.016 0-4.016c0-8.031-4.016-12.047-16.063-12.047s-28.11 12.047-28.11 28.11c0 12.047 8.031 16.063 20.078 16.063 24.094 0 36.141-24.094 36.141-44.173s-12.047-32.125-32.125-32.125c-40.157 0-64.251 40.157-52.204 80.314-8.031-4.016-24.094-16.063-24.094-40.157 8.031-28.11 36.141-68.267 84.329-68.267zM257.004 441.976c0 0 0 0 0 0-4.016 0-4.016 0 0 0-4.016 0 0 0 0 0zM212.831 450.008c0 8.031 4.016 12.047 8.031 16.063 0 0 0 0 0 0 8.031 0 16.063 8.031 16.063 16.063 0 24.094-20.078 48.188-20.078 72.282 0 12.047 4.016 16.063 4.016 24.094 0-48.188 44.173-88.345 44.173-108.424 0-4.016-4.016-8.031-8.031-8.031-8.031 0-8.031 4.016-8.031 8.031 0 0 0 4.016 0 4.016s-4.016 0-4.016-4.016c-4.016 0-4.016 4.016-8.031 0-4.016 0-8.031-4.016-12.047-4.016 4.016-4.016 4.016-4.016 4.016-8.031 4.016 4.016 4.016 4.016 8.031 4.016 0 0 4.016 0 4.016 0 0-8.031 4.016-12.047 12.047-16.063 0 0 0-4.016 0-4.016-4.016 0-4.016-4.016-4.016-8.031-4.016 0-4.016-4.016-8.031-4.016-16.063 0-24.094 8.031-28.11 20.078 0-4.016 0-4.016 0 0zM501.961 321.506c-4.016-4.016-8.031-8.031-8.031-16.063 4.016 0 12.047-4.016 16.063-4.016 0 4.016 0 8.031 8.031 8.031s4.016-8.031 8.031-16.063c0 0 4.016-4.016 4.016-4.016 4.016 4.016 4.016 8.031 4.016 12.047s0 8.031-4.016 12.047c48.188 0 72.282 40.157 72.282 72.282-8.031-8.031-36.141-12.047-48.188-12.047-40.157 0-52.204 20.078-56.22 20.078s-4.016-8.031-4.016-12.047c0-4.016 0-4.016-4.016-4.016s-4.016 0-8.031 0c0 0-4.016 0-4.016-4.016 0-12.047 16.063-20.078 32.125-20.078 20.078 0 28.11 8.031 36.141 8.031 4.016 0 4.016-4.016 4.016-4.016 0-4.016-4.016-8.031-4.016-8.031 0-4.016 8.031 0 8.031-8.031s-12.047-12.047-32.125-12.047c-36.141 0-60.235 24.094-60.235 44.173 0 40.157 48.188 28.11 48.188 44.173 0 4.016-4.016 8.031-8.031 8.031 4.016 4.016 12.047 8.031 16.063 8.031s8.031 0 12.047 0c4.016 0 12.047 0 12.047 8.031 0 4.016-4.016 8.031-16.063 8.031 0 8.031 20.078 4.016 20.078 12.047 0 4.016-8.031 8.031-16.063 8.031 28.11 4.016 32.125 24.094 40.157 24.094 4.016 0 4.016 0 4.016-4.016s-8.031-12.047-8.031-20.078c0-4.016 0-8.031 4.016-8.031-4.016 0-4.016 4.016-8.031 4.016 4.016-4.016 8.031-16.063 8.031-24.094s-4.016-16.063-8.031-16.063c0 0-4.016 0-4.016 4.016 0-4.016-4.016-12.047-4.016-16.063 0-16.063 8.031-28.11 20.078-28.11s20.078 12.047 20.078 28.11c0 16.063-8.031 32.125-20.078 44.173 0 0 4.016 0 4.016 0 8.031 0 12.047 4.016 12.047 8.031 0 8.031-12.047 16.063-12.047 20.078s4.016 4.016 8.031 4.016c12.047 0 16.063 0 16.063-4.016s-4.016-8.031-4.016-8.031c0 0 0-4.016 4.016-4.016 8.031 0 40.157 4.016 40.157 12.047s-28.11 28.11-32.125 28.11c0 0-4.016 0-4.016 0s0-4.016 0-8.031c0-4.016 0-4.016-8.031-4.016-4.016 0-16.063 0-16.063 12.047 0 16.063 36.141 12.047 36.141 28.11-16.063 0-24.094 8.031-32.125 8.031-4.016 0-12.047 0-12.047-12.047 0-4.016 0-8.031 0-12.047s0-8.031-4.016-8.031c-4.016 0-4.016 4.016-4.016 12.047 0 4.016 0 12.047 0 12.047 0 24.094-28.11 16.063-32.125 36.141-8.031-12.047-8.031-20.078-8.031-28.11 0-28.11 36.141-24.094 36.141-44.173 0-4.016-4.016-8.031-8.031-8.031-8.031 0-12.047 12.047-20.078 12.047-4.016 0-8.031-4.016-8.031-12.047 0-4.016 0-8.031 0-16.063s-4.016-16.063-8.031-20.078c0 0 0 0 0 0-48.188 0-84.329-40.157-84.329-80.314 12.047-16.063 32.125-48.188 68.267-60.235zM160.627 711.027c0 4.016-4.016 4.016 0 0-4.016 0-4.016 0 0 0-4.016 0 0 0 0 0zM590.306 265.286c4.016 8.031 4.016 16.063 4.016 24.094-12.047 0-16.063 4.016-20.078 4.016s-8.031-4.016-8.031-8.031c-8.031-8.031-16.063-24.094-16.063-40.157 0-12.047 8.031-24.094 24.094-24.094 56.22 0 96.376 32.125 96.376 60.235 0 16.063-8.031 20.078-16.063 20.078-4.016-4.016-12.047-8.031-24.094-12.047 0-8.031-4.016-12.047-12.047-16.063s-20.078-8.031-28.11-8.031zM598.337 285.365c12.047 0 20.078 4.016 28.11 4.016 0 4.016 0 4.016 0 8.031s0 8.031-4.016 8.031c0 0-12.047-8.031-32.125-8.031h-4.016c0-4.016 0-4.016 0-8.031 0 0 0 0 0 0 8.031-4.016 8.031-4.016 12.047-4.016zM714.792 490.165c0 4.016 8.031 12.047 8.031 12.047s0 0 0 0c-4.016 0-16.063-8.031-32.125-8.031-8.031 0-12.047 0-12.047 4.016s4.016 8.031 12.047 12.047c8.031 4.016 24.094 4.016 24.094 8.031s-16.063 4.016-16.063 4.016c0 4.016 4.016 12.047 4.016 16.063 0 0 0 0 0 0-4.016 0-8.031-8.031-12.047-8.031s-8.031 8.031-12.047 12.047c0 0 0 0 0-4.016s0-12.047 0-20.078c0-8.031-4.016-16.063-8.031-16.063-8.031 0-8.031 8.031-8.031 12.047 0 8.031 4.016 20.078 4.016 28.11 0 4.016 0 4.016 0 4.016-4.016 0-8.031-8.031-12.047-8.031s-8.031 12.047-12.047 12.047c0 0 0 0 0-4.016s0-8.031 0-8.031-4.016-4.016-8.031-4.016c-4.016 0-8.031 0-8.031 0s4.016-4.016 8.031-8.031c8.031-4.016 24.094-12.047 24.094-24.094s-20.078-20.078-32.125-24.094c-4.016 0-12.047-4.016-12.047-4.016 0-4.016 16.063-4.016 16.063-8.031 0 0-8.031-12.047-8.031-16.063 0 0 0 0 0 0 4.016 0 12.047 8.031 16.063 8.031s4.016-12.047 8.031-12.047c4.016 0 4.016 20.078 4.016 24.094 4.016 8.031 8.031 20.078 16.063 20.078s8.031-12.047 8.031-20.078c0-12.047-8.031-24.094-8.031-32.125 0 0 0 0 0 0 4.016 0 8.031 8.031 12.047 8.031s12.047-12.047 12.047-12.047c0 0 0 0 0 4.016s0 12.047 0 16.063c0 4.016 16.063 4.016 16.063 4.016s-8.031 4.016-12.047 8.031c-8.031 4.016-20.078 16.063-20.078 28.11 0 4.016 0 4.016 4.016 4.016 20.078 0 28.11-28.11 32.125-28.11s0 12.047 4.016 16.063c0 0 4.016 0 4.016 0 4.016 0 8.031 0 12.047 0 0 0 4.016 0 4.016 0-4.016-4.016-20.078 0-20.078 4.016zM297.161 795.357c0 4.016 0 4.016-4.016 4.016 0 0-4.016 0-4.016-4.016 4.016 4.016 4.016 0 8.031 0 0 0 0 0 0 0zM357.396 715.043c0 0 0 0 0 0s0 0 0 0 0 0 0 0zM341.333 682.918c0 0 0 0 0 0s0 0 0 0 0 0 0 0zM313.224 747.169c0 0 4.016 4.016 4.016 4.016 0 4.016 0 8.031-4.016 8.031 0 0 0-4.016 0-4.016s0-4.016 0-8.031zM309.208 751.184c0 8.031 0 8.031 0 8.031-4.016 0-8.031-16.063-12.047-24.094 0-4.016 0-8.031 4.016-12.047 0 0 0 0 0 0s0 0 0 0 0 0 0 0 0 0 0 0 0 0 0 4.016c0 0 0 0 4.016 4.016 0 0 0 4.016 0 4.016 4.016 0 4.016 8.031 4.016 16.063zM622.431 401.82c12.047 0 20.078 8.031 20.078 16.063 0 12.047-16.063 24.094-36.141 24.094 0 0 4.016-4.016 4.016-8.031 0-8.031-4.016-12.047-4.016-20.078s8.031-12.047 16.063-12.047zM566.212 478.118c0 0 0-4.016 0-12.047 0-4.016 0-12.047 0-16.063s0-8.031 4.016-8.031c4.016 8.031 4.016 16.063 4.016 24.094 0 4.016-4.016 8.031-8.031 12.047zM570.227 482.133c0 0 0 0 0 0 0-4.016 0-4.016 0 0 0-4.016 0 0 0 0zM546.133 401.82c12.047 0 20.078 8.031 20.078 16.063 0 12.047-16.063 24.094-40.157 24.094 4.016-4.016 4.016-8.031 4.016-8.031 0-4.016-4.016-12.047-4.016-16.063 0-12.047 8.031-16.063 20.078-16.063zM341.333 682.918c0 0 4.016 0 0 0 16.063 0 28.11 12.047 28.11 24.094 0-4.016-4.016-4.016-8.031-4.016s-4.016 4.016-8.031 12.047c4.016-12.047-4.016-32.125-12.047-32.125zM566.212 482.133c0 0 0-4.016 0 0 4.016-4.016 0-4.016 0 0 0 0 0 0 0 0zM317.239 751.184c0 0 0 0 0 0 0-8.031 0-12.047 0-16.063-4.016-4.016-8.031-8.031-8.031-8.031 4.016-16.063 12.047-40.157 32.125-44.173 0 0-4.016 4.016-4.016 4.016 0 12.047 8.031 32.125 16.063 32.125 0 0 0-4.016 4.016-4.016 0 0 0 0 0 0 0 12.047 4.016 24.094 8.031 24.094s4.016 0 4.016-8.031 0-12.047 4.016-12.047c4.016 0 8.031 12.047 8.031 20.078 0 20.078-8.031 36.141-28.11 36.141-16.063 0-28.11-8.031-36.141-24.094zM566.212 454.024v0 0zM84.329 899.765c0-8.031 52.204 0 52.204-8.031 0-12.047-48.188-56.22-48.188-68.267 0-4.016 4.016-4.016 4.016-4.016 16.063 0 52.204 28.11 60.235 28.11s8.031-8.031 8.031-12.047c0-8.031 0-20.078 0-28.11s0-12.047 4.016-12.047c8.031 0 20.078 20.078 24.094 20.078 12.047 0 8.031-56.22 20.078-56.22s16.063 60.235 24.094 60.235c8.031 0 12.047-16.063 20.078-16.063s4.016 32.125 12.047 32.125c8.031 0 36.141-36.141 48.188-36.141 4.016 0 4.016 4.016 4.016 8.031 0 16.063-20.078 52.204-20.078 64.251 0 4.016 0 4.016 4.016 4.016 12.047 0 40.157-16.063 56.22-16.063 4.016 0 8.031 4.016 8.031 8.031 0 0-4.016 4.016-8.031 12.047 0 0 0 0 0 0 4.016 0 8.031 12.047 8.031 24.094 0 16.063-4.016 16.063-12.047 16.063s-20.078-4.016-24.094-8.031c-4.016 8.031-8.031 12.047-8.031 16.063 0 0 0 4.016 0 4.016 8.031 8.031 40.157 16.063 40.157 24.094 0 4.016-8.031 4.016-8.031 4.016-28.11 0-64.251-12.047-64.251-20.078 0-12.047 32.125-36.141 32.125-48.188 0-4.016 0-4.016-4.016-4.016-8.031 0-28.11 12.047-40.157 12.047-4.016 0-4.016-4.016-4.016-8.031-4.016 4.016-12.047 8.031-12.047 12.047 0 8.031 12.047 8.031 12.047 12.047 0 0-8.031 4.016-20.078 4.016-16.063 0-12.047-16.063-24.094-16.063-16.063 0-12.047 16.063-28.11 16.063-12.047 0-20.078 0-20.078-4.016s12.047 0 12.047-12.047c0-8.031-28.11-12.047-28.11-16.063 0 0 4.016-4.016 4.016-4.016 4.016 0 16.063 4.016 20.078 4.016s8.031 0 8.031-4.016c0-8.031-16.063-20.078-16.063-24.094 0 0 0-4.016 4.016-4.016s16.063 12.047 24.094 12.047c12.047 0 8.031-24.094 12.047-28.11-4.016-8.031-4.016-20.078-8.031-20.078-8.031 0 0 44.173-8.031 44.173s-16.063-28.11-24.094-28.11c-4.016 0-4.016 4.016-4.016 4.016 0 8.031 4.016 24.094 4.016 32.125 0 4.016 0 8.031-4.016 8.031-8.031 0-28.11-16.063-32.125-16.063 0 0-4.016 0-4.016 0 0 8.031 28.11 32.125 28.11 40.157s-40.157 4.016-40.157 16.063c0 8.031 32.125 16.063 32.125 28.11 0 8.031-36.141 12.047-48.188 12.047-16.063 0-28.11-4.016-28.11-8.031 0-8.031 36.141-12.047 36.141-16.063 4.016-8.031-36.141-24.094-36.141-36.141zM325.271 907.796c0 0 0 0 0 0s0 0 0 0v0zM265.035 883.702c4.016 0 8.031 0 12.047-4.016 4.016-16.063 12.047-36.141 12.047-40.157 0 0 0-4.016 0-4.016-4.016 4.016-20.078 20.078-28.11 28.11-4.016 4.016-4.016 8.031-4.016 12.047s4.016 8.031 8.031 8.031zM236.925 867.639c4.016 0 8.031-4.016 8.031-8.031 0 0 0-4.016 0-4.016v-12.047c0-8.031 0-12.047-4.016-12.047-8.031 0-8.031 16.063-16.063 20.078 8.031 12.047 8.031 16.063 12.047 16.063zM787.075 887.718c0-12.047-12.047-24.094-48.188-24.094-4.016-8.031-12.047-12.047-16.063-12.047-16.063 0-28.11 16.063-32.125 16.063 0 0-4.016 0-4.016-4.016s4.016-8.031 4.016-16.063c0-16.063-24.094-20.078-24.094-24.094 0 0 0 0 4.016-4.016 16.063-4.016 32.125-4.016 48.188-4.016 4.016 0 4.016 0 8.031 0 0-4.016 0-8.031 0-8.031 4.016-8.031 8.031-8.031 8.031-8.031v0c8.031 0 20.078 8.031 24.094 20.078 12.047 0 20.078 4.016 28.11 8.031 0-20.078-24.094-40.157-52.204-40.157-4.016 0-4.016 0-8.031-4.016-4.016 12.047-12.047 28.11-20.078 28.11s-16.063-8.031-24.094-8.031c-12.047 0-8.031 12.047-20.078 12.047-4.016 0-4.016 0-8.031-4.016-24.094-12.047-40.157-8.031-44.173-12.047 0 0 0 0 0-4.016 0-24.094 24.094-64.251 68.267-64.251 28.11 0 48.188 8.031 52.204 24.094 4.016 0 8.031-4.016 12.047-4.016v0c32.125 0 60.235 28.11 60.235 56.22 0 8.031 0 12.047-4.016 16.063 16.063 8.031 28.11 24.094 28.11 44.173 0 24.094-8.031 32.125-8.031 44.173 0 4.016 4.016 12.047 12.047 16.063-16.063 0-20.078 4.016-28.11 4.016-12.047 0-24.094-8.031-24.094-20.078 0-4.016 0-8.031 0-16.063 0-4.016 0-4.016 0-4.016 4.016 4.016 8.031 0 8.031-4.016zM678.651 783.31c-16.063 0-24.094 12.047-24.094 20.078 0 0 0 0 0 0 4.016 0 8.031-4.016 16.063-8.031s16.063-4.016 16.063-4.016c4.016 0 4.016 0 4.016 0 0-4.016-4.016-8.031-12.047-8.031zM787.075 907.796c0 4.016 4.016 8.031 8.031 8.031s8.031-4.016 8.031-8.031-4.016-8.031-8.031-8.031c-4.016 4.016-8.031 4.016-8.031 8.031 0 0 0 0 0 0zM88.345 839.529c8.031 0 36.141 28.11 36.141 36.141 0 4.016-4.016 4.016-8.031 4.016-8.031 0-20.078-4.016-24.094-8.031s-8.031-16.063-8.031-24.094c0-4.016 0-8.031 4.016-8.031zM738.886 867.639c-8.031-4.016-20.078-4.016-32.125-8.031 4.016 0 8.031 0 12.047 0 8.031 0 12.047 0 16.063 0 4.016 4.016 4.016 4.016 4.016 8.031 0 0 0 0 0 0zM686.682 895.749c0-4.016 48.188-8.031 52.204-24.094 12.047 0 24.094 8.031 28.11 16.063 0 0 0 0-4.016 0-8.031 0-12.047 4.016-12.047 12.047 0 12.047 8.031 20.078 8.031 24.094 0 12.047-20.078 16.063-40.157 16.063-24.094 0-48.188-4.016-48.188-8.031s32.125 0 56.22-28.11c-12.047 0-40.157-4.016-40.157-8.031zM357.396 799.373c4.016 0 8.031 8.031 8.031 12.047 0 0 0 4.016 0 4.016-4.016 4.016-32.125 24.094-40.157 24.094 0 0 0 0 0 0 0-8.031 28.11-40.157 32.125-40.157zM791.090 397.804c20.078 20.078 32.125 48.188 32.125 76.298 0 24.094-12.047 44.173-28.11 44.173-12.047 0-20.078-12.047-20.078-24.094 0-8.031 4.016-16.063 8.031-20.078-4.016 4.016-12.047 8.031-24.094 8.031s-20.078-8.031-20.078-24.094c4.016-32.125 52.204-16.063 52.204-60.235zM779.043 899.765c0 0-4.016 0-4.016 4.016 0-4.016 0-8.031-4.016-16.063 4.016 0 8.031 8.031 8.031 12.047zM413.616 365.678c-4.016 0-8.031-4.016-8.031-8.031s4.016-8.031 4.016-12.047c0-4.016 0-4.016-4.016-8.031-4.016 4.016-12.047 8.031-16.063 8.031-28.11 0-20.078-36.141-48.188-36.141-12.047 0-16.063 0-20.078 0 0 0-4.016 0-4.016-4.016 0-8.031 12.047-24.094 40.157-24.094s56.22 16.063 56.22 36.141c0 4.016 0 8.031-4.016 12.047 0 0 4.016 4.016 8.031 4.016s8.031-4.016 12.047-4.016c4.016 0 8.031 4.016 8.031 8.031s0 4.016-4.016 8.031c4.016 0 4.016 4.016 4.016 8.031s-4.016 8.031-8.031 8.031c-4.016 0-4.016 0-8.031-4.016 0 4.016 0 8.031-8.031 8.031zM614.4 819.451c4.016 0 4.016 0 8.031 0 16.063 0 44.173 8.031 44.173 40.157 0 4.016 0 4.016 0 8.031-4.016-28.11-24.094-44.173-52.204-48.188zM509.992 859.608c0-4.016 20.078 0 20.078-8.031 0-4.016-12.047-24.094-12.047-28.11 0 0 0 0 0 0 4.016 0 20.078 16.063 24.094 16.063s4.016-8.031 8.031-16.063c0-4.016 0-4.016 4.016-4.016s8.031 12.047 12.047 12.047c4.016 0 20.078-12.047 44.173-12.047 4.016 0 8.031 0 12.047 0-16.063 0-24.094 8.031-24.094 12.047 0 0 0 4.016 4.016 4.016 8.031 0 20.078-8.031 24.094-8.031 0 0 4.016 0 4.016 0 0 4.016-4.016 12.047-4.016 12.047s0 0 4.016 0c8.031 0 20.078-4.016 28.11-4.016 4.016 0 4.016 0 4.016 0 0 4.016-20.078 16.063-20.078 16.063 0 4.016 24.094 8.031 24.094 12.047s-32.125 0-32.125 4.016c0 4.016 8.031 8.031 8.031 12.047 0 0 0 0-4.016 0s-16.063-4.016-24.094-4.016c-4.016 0-8.031 0-8.031 4.016s12.047 12.047 28.11 12.047c28.11 0 44.173-12.047 44.173-32.125 0 4.016 0 8.031 0 12.047 0 36.141-28.11 60.235-68.267 60.235-20.078 0-32.125-8.031-40.157-8.031-4.016 0-12.047 8.031-16.063 8.031 0 0-4.016-4.016-4.016-8.031s0-12.047-4.016-12.047c-8.031 0-32.125 16.063-32.125 12.047s16.063-24.094 16.063-28.11c0-4.016-16.063-8.031-16.063-12.047s20.078-8.031 20.078-12.047c-4.016 0-24.094-8.031-24.094-12.047zM550.149 887.718c0 0 0 0 0 0 4.016 0 8.031 0 12.047 0s4.016 12.047 4.016 12.047c0 0 4.016-12.047 8.031-12.047s8.031 4.016 8.031 4.016c0 0 0 0 0 0s-4.016-8.031-4.016-8.031c0 0 12.047-4.016 12.047-4.016s-12.047 0-12.047-4.016c0 0 4.016-8.031 4.016-8.031s0 0 0 0-8.031 4.016-12.047 4.016c-4.016 0-8.031-8.031-8.031-8.031s0 0 0 0v8.031c0 0 0 0 0 0-4.016 0-8.031 0-8.031 0s0 0 0 0 8.031 8.031 8.031 8.031c-4.016 4.016-12.047 8.031-12.047 8.031zM353.38 325.522c0 0 4.016 0 0 0 8.031 0 12.047 4.016 12.047 8.031 0 0 0 0 0 4.016-4.016-8.031-8.031-12.047-12.047-12.047zM389.522 373.71c0 0 0-4.016 4.016-4.016 12.047 0 36.141 20.078 36.141 36.141 0 4.016 0 4.016-4.016 4.016-4.016-16.063-16.063-32.125-36.141-36.141z" />
<glyph unicode="&#xe908;" glyph-name="arrow-down" horiz-adv-x="1638" d="M1597.44 919.040c-51.2 51.2-133.12 51.2-184.32 0l-593.92-593.92-604.16 593.92c-51.2 51.2-133.12 51.2-184.32 0s-51.2-133.12 0-184.32l788.48-798.72 788.48 798.72c40.96 51.2 40.96 133.12-10.24 184.32z" />
<glyph unicode="&#xe909;" glyph-name="map" horiz-adv-x="819" d="M737.28 556.339c0 177.152-146.719 321.741-327.68 321.741s-327.68-144.589-327.68-321.741c0-177.603 106.004-349.962 326.124-517.652 222.085 179.118 329.236 352.092 329.236 517.652zM0 556.339c0 222.659 183.665 403.661 409.6 403.661s409.6-181.002 409.6-403.661c0-207.176-136.52-413.901-409.6-620.339-273.080 192.922-409.6 399.688-409.6 620.339zM409.6 468.48c44.646 0 81.92 37.274 81.92 81.92s-37.274 81.92-81.92 81.92c-44.646 0-81.92-37.274-81.92-81.92s37.274-81.92 81.92-81.92zM409.6 386.56c-90.112 0-163.84 73.728-163.84 163.84s73.728 163.84 163.84 163.84 163.84-73.728 163.84-163.84-73.728-163.84-163.84-163.84z" />
<glyph unicode="&#xe90a;" glyph-name="facebook" horiz-adv-x="490" d="M144.785-64v467.078h-144.785v182.094h144.785v134.189c0 155.782 87.619 240.64 215.619 240.64 61.306 0 113.976-4.986 129.336-7.123v-162.861h-88.776c-69.587 0-83.078-35.974-83.078-88.687v-116.202h165.977l-21.593-182.049h-144.384v-467.078z" />
<glyph unicode="&#xe90b;" glyph-name="instagram" d="M512 867.747c136.704 0 152.902-0.512 206.895-2.979 49.897-2.327 77.033-10.612 95.046-17.641 23.924-9.309 40.96-20.387 58.88-38.307s29.044-34.956 38.307-58.88c6.982-18.013 15.36-45.149 17.641-95.046 2.467-53.993 2.979-70.191 2.979-206.895s-0.512-152.902-2.979-206.895c-2.327-49.897-10.612-77.033-17.641-95.092-9.309-23.878-20.387-40.96-38.307-58.833-16.123-16.589-35.79-29.642-57.788-37.945l-1.092-0.362c-18.013-6.982-45.149-15.36-95.046-17.641-53.993-2.467-70.191-2.979-206.895-2.979s-152.902 0.512-206.895 2.979c-49.897 2.281-77.033 10.612-95.046 17.641-23.924 9.309-40.96 20.387-58.88 38.307-16.584 16.111-29.635 35.762-37.945 57.742l-0.362 1.092c-6.982 18.060-15.36 45.149-17.641 95.092-2.467 53.993-2.979 70.191-2.979 206.895s0.512 152.902 2.979 206.895c2.281 49.897 10.612 77.033 17.641 95.046 9.309 23.924 20.387 40.96 38.307 58.88 16.123 16.589 35.79 29.642 57.788 37.945l1.092 0.362c18.013 6.982 45.149 15.36 95.046 17.641 53.993 2.467 70.191 2.979 206.895 2.979zM512 960c-139.031 0-156.486-0.605-211.084-3.072-54.505-2.513-91.695-11.171-124.276-23.831-35.499-13.562-65.762-33.639-90.683-58.985l-0.034-0.035c-25.399-24.952-45.49-55.216-58.486-89l-0.581-1.717c-12.614-32.582-21.271-69.772-23.738-124.276-2.56-54.598-3.119-72.052-3.119-211.084s0.605-156.486 3.072-211.084c2.513-54.505 11.171-91.695 23.785-124.276 13.59-35.504 33.697-65.768 59.074-90.68l0.038-0.037c24.94-25.394 55.187-45.484 88.954-58.485l1.717-0.581c32.582-12.614 69.772-21.271 124.276-23.738 54.598-2.56 72.052-3.119 211.084-3.119s156.486 0.605 211.084 3.072c54.505 2.513 91.695 11.171 124.276 23.785 35.504 13.59 65.768 33.697 90.68 59.074l0.037 0.038c25.376 24.943 45.451 55.19 58.439 88.953l0.581 1.717c12.66 32.582 21.318 69.772 23.831 124.276 2.467 54.598 3.072 72.052 3.072 211.084s-0.605 156.486-3.072 211.084c-2.513 54.505-11.171 91.695-23.831 124.276-13.562 35.499-33.639 65.762-58.985 90.683l-0.035 0.034c-24.955 25.381-55.218 45.457-88.999 58.439l-1.718 0.58c-32.582 12.66-69.772 21.318-124.276 23.831-54.598 2.467-72.052 3.072-211.084 3.072zM512 727.273c-154.238 0-279.273-125.035-279.273-279.273s125.035-279.273 279.273-279.273v0c154.238 0 279.273 125.035 279.273 279.273s-125.035 279.273-279.273 279.273v0zM512 266.705c-100.126 0-181.295 81.168-181.295 181.295s81.168 181.295 181.295 181.295v0c100.126 0 181.295-81.168 181.295-181.295s-81.168-181.295-181.295-181.295v0zM884.364 704c0-38.56-31.259-69.818-69.818-69.818s-69.818 31.259-69.818 69.818v0c0 38.56 31.259 69.818 69.818 69.818s69.818-31.259 69.818-69.818v0z" />
<glyph unicode="&#xe90c;" glyph-name="arrow-left" horiz-adv-x="640" d="M615.872-40.768c33.408 30.912 30.848 82.56 0 113.472l-375.104 376.576 375.104 374.016c14.288 14.625 23.103 34.651 23.103 56.736s-8.815 42.111-23.119 56.752l0.015-0.016c-14.52 14.337-34.482 23.192-56.512 23.192s-41.992-8.855-56.52-23.2l0.008 0.008-502.848-485.76 500.288-491.776c14.984-14.359 35.356-23.199 57.792-23.199s42.808 8.84 57.822 23.227l-0.030-0.028z" />
<glyph unicode="&#xe90d;" glyph-name="arrow-right" horiz-adv-x="640" d="M24.128-40.768c-33.408 30.912-30.848 82.56 0 113.472l375.104 376.576-375.104 374.016c-14.288 14.625-23.103 34.651-23.103 56.736s8.815 42.111 23.119 56.752l-0.015-0.016c14.52 14.337 34.482 23.192 56.512 23.192s41.992-8.855 56.52-23.2l-0.008 0.008 502.848-485.76-500.288-491.776c-14.984-14.359-35.356-23.199-57.792-23.199s-42.808 8.84-57.822 23.227l0.030-0.028z" />
<glyph unicode="&#xe90e;" glyph-name="arrow-up" horiz-adv-x="1638" d="M1601.229-25.395c-49.459-53.453-132.096-49.357-181.555 0l-602.522 600.166-598.426-600.166c-23.4-22.861-55.442-36.966-90.778-36.966s-67.378 14.104-90.803 36.99l0.025-0.024c-22.939 23.232-37.107 55.171-37.107 90.419s14.168 67.187 37.12 90.433l-0.013-0.013 777.216 804.557 786.842-800.461c22.974-23.974 37.118-56.569 37.118-92.467s-14.144-68.493-37.163-92.515l0.045 0.048z" />
<glyph unicode="&#xe90f;" glyph-name="hamburguer" d="M0 960h1023.984v-146.286h-1023.984v146.286zM0 521.143h1023.984v-146.286h-1023.984v146.286zM0 82.286h1023.984v-146.286h-1023.984v146.286z" />
<glyph unicode="&#xe910;" glyph-name="phone" horiz-adv-x="853" d="M193.454 926.324c-5.99 2.102-13.386 3.142-18.664 1.363-70.214-16.601-125.502-105.886-144.57-170.010-60.696-208.267 81.068-415.997 218.132-558.784 121.717-126.765 359.441-340.419 538.734-191.675 22.676 18.241 50.441 45.85 53.551 76.924 3.598 52.433-39.266 96.271-72.252 129.897-25.399 24.997-76.404 91.407-113.559 95.368-33.457 3.442-59.277-28.222-83.186-46.29l-42.192-31.884c-7.032-5.314-78.629 57.687-86.389 65.080-29.097 25.517-56.614 53.333-80.086 83.101s-44.13 61.662-60.917 94.272c-4.948 9.518-44.892 92.020-39.092 97.507 0 0 49.746 40.906 64.678 57.714 31.446 35.915 55.512 64.044 32.528 115.171-8.662 18.864-20.311 34.366-33.019 51.277-22.412 28.359-44.651 57.954-71.283 83.124-14.288 14.613-38.281 40.673-62.413 47.846z" />
<glyph unicode="&#xe911;" glyph-name="ad-choices-logo" horiz-adv-x="945" d="M906.24 520.962l-765.007 425.726c-14.021 7.768-29.617 11.814-45.529 11.814-52.539 0-95.705-44.345-95.705-98.319 0 0 0-0.081 0-0.081v-851.453c0 0 0-0.081 0-0.081 0-40.622 32.532-74.043 72.074-74.043 11.973 0 23.71 3.075 34.265 8.901l136.113 75.742c25.521 14.566 34.974 48.067 20.953 74.448-14.178 26.218-46.789 35.929-72.389 21.525s-15.439-10.034-33.241-10.034c-19.535 0-35.604 19.016-35.604 50.414v591.534c0 50.009 38.676 67.974 87.513 41.998l245.445-143.231 255.685-146.872c15.36-9.144 24.891-26.057 24.891-44.345s-9.531-35.201-24.891-44.345l-318.385-182.882v201.817c-0.079 28.808-23.079 52.518-51.121 52.599-28.042-0.081-51.042-23.791-51.121-52.599v-294.877c0.079-28.808 23.237-52.518 51.279-52.518 3.466 0 7.010 0.405 10.398 1.133 3.938 0.081 14.1 5.422 14.966 5.988l145.723 80.678 393.689 219.135c23.552 13.19 38.282 38.599 38.282 66.113s-14.73 52.922-38.282 66.113zM396.524 582.695c0-30.641-25.206-55.847-55.847-55.847s-55.847 25.206-55.847 55.847c0 30.641 25.206 55.847 55.847 55.847s55.847-25.206 55.847-55.847z" />
<glyph unicode="&#xe912;" glyph-name="Icon-Speech" horiz-adv-x="1237" d="M929.553 628.835c0.001 0.239 0.001 0.521 0.001 0.804 0 181.847-146.925 329.378-328.541 330.361h-272.379c-181.953-1.434-328.9-149.267-328.9-331.422 0-137.34 83.536-255.169 202.57-305.448l2.176-0.816v-123.487c-0.005-0.25-0.008-0.545-0.008-0.841 0-24.131 19.562-43.694 43.694-43.694 12.409 0 23.61 5.173 31.564 13.48l0.015 0.016 128.816 129.882h190.893c182.406 0.455 330.099 148.428 330.099 330.897 0 0.094 0 0.188 0 0.282v-0.015zM396.705 354.285c-0.312 0.012-0.678 0.019-1.046 0.019-7.72 0-14.726-3.054-19.877-8.020l0.009 0.008-113.363-114.296v111.099c-0.297 12.306-8.24 22.682-19.247 26.58l-0.202 0.062c-108.441 38.155-184.778 139.702-184.778 259.079 0 75.709 30.704 144.246 80.338 193.84l0.002 0.002c47.728 47.732 113.664 77.258 186.496 77.263h274.417c147.179-4.742 264.687-125.19 264.687-273.084s-117.508-268.343-264.253-273.073l-0.434-0.011zM600.519 730.742c-5.168 4.993-12.216 8.070-19.982 8.070s-14.814-3.077-19.99-8.078l0.008 0.008-141.604-142.137-50.621 51.686c-5.168 4.993-12.216 8.070-19.982 8.070s-14.814-3.077-19.99-8.078l0.008 0.008c-5.118-5.112-8.284-12.177-8.284-19.982s3.166-14.87 8.284-19.982v0l70.203-72.068c5.508-4.998 12.854-8.057 20.914-8.057s15.407 3.060 20.94 8.081l-0.026-0.023 160.121 161.852c5.221 5.189 8.452 12.375 8.452 20.315s-3.231 15.126-8.45 20.313l-0.001 0.001zM1026.797 556.368c-1.863 0.486-4.002 0.764-6.206 0.764-4.894 0-9.467-1.375-13.354-3.759l0.111 0.064c-6.69-4.514-11.504-11.372-13.282-19.372l-0.039-0.21c-0.359-1.696-0.564-3.646-0.564-5.643 0-13.966 10.043-25.586 23.301-28.033l0.175-0.027c93.301-18.761 162.589-100.053 162.589-197.529 0-87.77-56.177-162.419-134.537-189.952l-1.41-0.432c-11.153-4.003-19.040-14.367-19.315-26.61l-0.001-0.033v-66.606l-74.465 75.132h-1.998c-5.388 4.003-12.1 6.509-19.383 6.792l-0.066 0.002h-154.259c-77.619 0.178-144.783 44.763-177.45 109.689l-0.521 1.143c-3.612 7.425-9.997 13.027-17.772 15.527l-0.211 0.059c-2.335 0.741-5.020 1.169-7.804 1.169-4.712 0-9.138-1.223-12.978-3.369l0.135 0.069c-7.312-3.612-12.819-9.944-15.262-17.641l-0.057-0.209c-0.661-2.209-1.041-4.747-1.041-7.374 0-4.618 1.175-8.961 3.242-12.747l-0.070 0.139c42.8-85.215 129.516-142.67 229.652-142.67 0.049 0 0.098 0 0.147 0h142.529l95.779-97.111c7.123-7.317 17.069-11.857 28.074-11.857 0.106 0 0.211 0 0.316 0.001h-0.016c5.579 0.262 10.807 1.461 15.631 3.444l-0.311-0.113c14.643 6.131 24.749 20.332 24.777 36.896v89.922c92.635 40.859 156.124 131.893 156.124 237.756 0 0.056 0 0.113 0 0.169v-0.009c0.007 0.698 0.011 1.522 0.011 2.348 0 124.605-89.665 228.268-207.993 249.984l-1.56 0.238z" />
<glyph unicode="&#xe913;" glyph-name="Icon-Headset" horiz-adv-x="969" d="M866.728 464.778v107.475c0 213.995-171.363 388.105-382.134 388.105v0c-0.056 0-0.122 0-0.189 0-105.863 0-201.528-43.662-269.971-113.959l-0.081-0.084c-69.176-70.14-111.898-166.526-111.898-272.889 0-0.622 0.001-1.244 0.004-1.866v0.096-107.475c-58.741-11.459-102.467-62.508-102.467-123.77 0-0.485 0.003-0.969 0.008-1.452l-0.001 0.073v-56.604c0.333-69.194 56.133-125.245 125.198-125.984l0.070-0.001h61.5c15.622 0.269 28.183 12.995 28.183 28.656 0 0.043 0 0.087 0 0.13v-0.007 253.044c0 0.036 0 0.078 0 0.12 0 15.745-12.696 28.524-28.409 28.659h-27.24v105.087c-0.001 0.314-0.002 0.686-0.002 1.058 0 90.702 36.479 172.883 95.567 232.673l-0.032-0.032c58.287 59.702 139.572 96.728 229.504 96.728 0.131 0 0.262 0 0.393 0h-0.020c179.965-1.753 325.179-148.049 325.179-328.262 0-0.761-0.003-1.522-0.008-2.281l0.001 0.117v-104.967h-27.585c-15.726-0.135-28.421-12.914-28.421-28.659 0-0.042 0-0.085 0-0.127v0.007-253.164c0-0.028 0-0.062 0-0.096 0-10.229 5.336-19.211 13.377-24.315l0.117-0.070c-20.304-35.9-45.718-66.34-75.685-91.539l-0.503-0.412c-17.447 32.090-50.906 53.507-89.368 53.507-0.446 0-0.892-0.003-1.337-0.009l0.068 0.001h-42.393c-56.519-0.607-102.102-46.566-102.102-103.171 0-0.086 0-0.172 0-0.258v0.013-48.483c0.171-0.862 0.269-1.852 0.269-2.866s-0.098-2.004-0.285-2.963l0.016 0.097c0-0.036 0-0.078 0-0.12 0-15.745 12.696-28.524 28.409-28.659h0.013c151.663 1.063 282.318 89.929 343.76 218.253l0.996 2.31h14.688c69.328 0.675 125.27 57.033 125.27 126.457 0 0.212-0.001 0.424-0.002 0.635v-0.033 56.484c0.002 0.274 0.003 0.598 0.003 0.922 0 61.284-43.716 112.357-101.665 123.738l-0.798 0.131zM912.226 283.384c0.001-0.108 0.001-0.236 0.001-0.363 0-37.893-30.482-68.666-68.263-69.137h-33.242v195.605h33.078c37.825-0.471 68.307-31.245 68.307-69.137 0-0.128 0-0.255-0.001-0.383v0.020zM56.962 339.987c-0.001 0.108-0.001 0.236-0.001 0.363 0 37.893 30.482 68.666 68.263 69.137h33.122v-195.485h-33.078c-37.825 0.471-68.307 31.245-68.307 69.137 0 0.128 0 0.255 0.001 0.383v-0.020zM513.493 18.875c0.061 24.811 19.921 44.963 44.612 45.497l0.050 0.001h44.065c18.805-0.050 34.79-12.067 40.747-28.835l0.094-0.303c-37.332-21.547-81.348-36.017-128.295-40.387l-1.272-0.096z" />
<glyph unicode="&#xe914;" glyph-name="Icon-Envelope" horiz-adv-x="1325" d="M1191.68 960h-1058.24c-0.432 0.005-0.941 0.008-1.452 0.008-72.286 0-131-58.104-131.987-130.155l-0.001-0.093v-763.52c0.988-72.144 59.703-130.248 131.988-130.248 0.51 0 1.020 0.003 1.529 0.009l-0.078-0.001h1058.24c0.432-0.005 0.941-0.008 1.452-0.008 72.286 0 131 58.104 131.987 130.155l0.001 0.093v763.52c-0.988 72.144-59.703 130.248-131.988 130.248-0.51 0-1.020-0.003-1.529-0.009l0.078 0.001zM70.24 726.4l331.2-233.92-331.2-309.6zM1254.24 66.24c-0.442-34.212-28.28-61.777-62.555-61.777-0.508 0-1.015 0.006-1.52 0.018l0.075-0.001h-1056.8c-0.43-0.011-0.937-0.017-1.445-0.017-34.276 0-62.113 27.564-62.555 61.735v21.802l389.92 363.68 203.36-144 203.36 144 388.8-363.68zM1254.24 182.88l-330.56 309.6 331.2 233.92zM1254.24 811.040l-592-418.24-592 418.24v18.72c0.442 34.212 28.28 61.777 62.555 61.777 0.508 0 1.015-0.006 1.52-0.018l-0.075 0.001h1057.44c0.43 0.011 0.937 0.017 1.445 0.017 34.276 0 62.113-27.564 62.555-61.735v-0.042z" />
<glyph unicode="&#xe915;" glyph-name="ok" horiz-adv-x="1408" d="M1359.844 935.349c-31.541 34.17-84.11 31.541-115.651 0l-723.763-733.311-381.123 383.752c-31.541 31.541-84.11 31.541-115.651 0s-31.541-84.11 0-115.651l494.987-514.398 841.201 861.329c31.541 34.17 31.541 84.11 0 118.28z" />
<glyph unicode="&#xe916;" glyph-name="minus" horiz-adv-x="1072" d="M1065.227 448c0-50.664-41.069-91.733-91.733-91.733h-874.988c-50.664 0-91.733 41.069-91.733 91.733s41.069 91.733 91.733 91.733h874.988c50.664 0 91.733-41.069 91.733-91.733z" />
<glyph unicode="&#xe917;" glyph-name="plus" d="M512 960c49.013 0 88.747-39.733 88.747-88.747v-846.507c0-49.013-39.733-88.747-88.747-88.747s-88.747 39.733-88.747 88.747v846.507c0 49.013 39.733 88.747 88.747 88.747zM88.747 536.747h846.507c49.013 0 88.747-39.733 88.747-88.747s-39.733-88.747-88.747-88.747h-846.507c-49.013 0-88.747 39.733-88.747 88.747s39.733 88.747 88.747 88.747z" />
<glyph unicode="&#xe918;" glyph-name="list-view" horiz-adv-x="1158" d="M44.522 960h133.565c24.589 0 44.522-19.933 44.522-44.522v-133.565c0-24.589-19.933-44.522-44.522-44.522h-133.565c-24.589 0-44.522 19.933-44.522 44.522v133.565c0 24.589 19.933 44.522 44.522 44.522zM44.522 559.304h133.565c24.589 0 44.522-19.933 44.522-44.522v-133.565c0-24.589-19.933-44.522-44.522-44.522h-133.565c-24.589 0-44.522 19.933-44.522 44.522v133.565c0 24.589 19.933 44.522 44.522 44.522zM44.522 158.609h133.565c24.589 0 44.522-19.933 44.522-44.522v-133.565c0-24.589-19.933-44.522-44.522-44.522h-133.565c-24.589 0-44.522 19.933-44.522 44.522v133.565c0 24.589 19.933 44.522 44.522 44.522zM400.696 514.783h756.87v-133.565h-756.87v133.565zM400.696 114.087h756.87v-133.565h-756.87v133.565zM400.696 915.478h756.87v-133.565h-756.87v133.565z" />
<glyph unicode="&#xe919;" glyph-name="grid-view" horiz-adv-x="1069" d="M44.522 960h356.174c24.589 0 44.522-19.933 44.522-44.522v-356.174c0-24.589-19.933-44.522-44.522-44.522h-356.174c-24.589 0-44.522 19.933-44.522 44.522v356.174c0 24.589 19.933 44.522 44.522 44.522zM667.826 960h356.174c24.589 0 44.522-19.933 44.522-44.522v-356.174c0-24.589-19.933-44.522-44.522-44.522h-356.174c-24.589 0-44.522 19.933-44.522 44.522v356.174c0 24.589 19.933 44.522 44.522 44.522zM44.522 381.217h356.174c24.589 0 44.522-19.933 44.522-44.522v-356.174c0-24.589-19.933-44.522-44.522-44.522h-356.174c-24.589 0-44.522 19.933-44.522 44.522v356.174c0 24.589 19.933 44.522 44.522 44.522zM667.826 381.217h356.174c24.589 0 44.522-19.933 44.522-44.522v-356.174c0-24.589-19.933-44.522-44.522-44.522h-356.174c-24.589 0-44.522 19.933-44.522 44.522v356.174c0 24.589 19.933 44.522 44.522 44.522z" />
<glyph unicode="&#xe91a;" glyph-name="list-bullet" d="M1024 448c0-282.784-229.216-512-512-512s-512 229.216-512 512c0 282.784 229.216 512 512 512s512-229.216 512-512z" />
<glyph unicode="&#xe91b;" glyph-name="filter" d="M963.765 803.388h-903.529c-18.071 0-30.118 12.047-30.118 30.118s12.047 30.118 30.118 30.118h903.529c18.071 0 30.118-12.047 30.118-30.118s-12.047-30.118-30.118-30.118zM963.765 417.882h-903.529c-18.071 0-30.118 12.047-30.118 30.118s12.047 30.118 30.118 30.118h903.529c18.071 0 30.118-12.047 30.118-30.118s-12.047-30.118-30.118-30.118zM963.765 32.376h-903.529c-18.071 0-30.118 12.047-30.118 30.118s12.047 30.118 30.118 30.118h903.529c18.071 0 30.118-12.047 30.118-30.118s-12.047-30.118-30.118-30.118zM542.118 809.412c0-83.168-67.421-150.588-150.588-150.588s-150.588 67.421-150.588 150.588c0 83.168 67.421 150.588 150.588 150.588s150.588-67.421 150.588-150.588zM963.765 448c0-83.168-67.421-150.588-150.588-150.588s-150.588 67.421-150.588 150.588c0 83.168 67.421 150.588 150.588 150.588s150.588-67.421 150.588-150.588zM421.647 86.588c0-83.168-67.421-150.588-150.588-150.588s-150.588 67.421-150.588 150.588c0 83.168 67.421 150.588 150.588 150.588s150.588-67.421 150.588-150.588z" />
<glyph unicode="&#xe91c;" glyph-name="person" d="M503.997 329.87c-170.142 0-503.966-81.841-503.966-251.983v-126.267h1008.246v126.267c0 170.142-334.139 251.983-504.281 251.983zM503.997 456.058c138.791 0 252.298 113.191 252.298 251.983 0 138.476-113.506 251.983-252.298 251.983-138.476 0-251.983-113.506-251.983-251.983 0-138.791 113.506-251.983 251.983-251.983z" />
<glyph unicode="&#xe91d;" glyph-name="printer" horiz-adv-x="1297" d="M409.6 413.867h477.867v68.267h-477.867zM1216.004 960c44.807 0 81.063-38.256 81.063-85.339v-512c0-47.159-36.256-85.322-81.063-85.322h-162.136v-256c0-47.159-36.269-85.339-81.073-85.339h-648.524c-44.766 0-81.060 38.166-81.060 85.339v256h-162.136c-44.781 0-81.076 38.163-81.076 85.322v512c0 47.083 36.294 85.339 81.076 85.339h1134.928zM324.271 21.339h648.524v512h-648.524v-512zM1134.931 704c44.816 0 81.073 38.163 81.073 85.322 0 47.083-36.269 85.339-81.073 85.339-44.807 0-81.063-38.256-81.063-85.339 0-47.159 36.256-85.322 81.063-85.322z" />
<glyph unicode="&#xe91e;" glyph-name="timer" horiz-adv-x="904" d="M433.646 44.496c-187.994 0-337.197 149.323-337.197 337.137 0 188.055 149.203 337.438 337.197 337.438s337.438-149.384 337.438-337.438c0-187.814-149.444-337.137-337.438-337.137zM771.084 651.547l72.222 67.524c-24.034 23.974-48.248 48.248-72.222 67.524l-67.584-67.524c-72.222 57.886-168.659 96.497-269.854 96.497-240.941 0-433.634-192.994-433.634-433.935s192.693-433.694 433.634-433.694c240.941 0 433.634 192.753 433.634 433.694 0 101.195-33.611 197.692-96.196 269.914zM385.397 333.685h96.497v288.888h-96.497v-288.888zM289.141 863.515h289.19v96.497h-289.19v-96.497z" />
<glyph unicode="&#xe91f;" glyph-name="FAQ-Icon" horiz-adv-x="945" d="M870.304 408.019c0-81.986-66.678-148.664-148.664-148.664h-265.39c-7.271 0-14.383-2.115-20.49-6.081l-220.259-143.588c11.21 25.857 25.143 57.768 42.407 97.162 5.076 11.58 3.966 24.932-2.935 35.533-6.927 10.602-18.718 16.974-31.383 16.974-81.986 0-148.664 66.678-148.664 148.664v328.367c0 81.986 66.678 148.637 148.664 148.637h498.049c81.986 0 148.664-66.652 148.664-148.637v-328.367zM223.591 959.976c-123.283 0-223.591-100.308-223.591-223.591v-328.367c0-104.538 72.124-192.552 169.18-216.902-78.681-179.703-77.994-180.945-68.423-197.998 5.076-9.068 13.669-15.599 23.742-18.058 2.935-0.74 5.949-1.084 8.936-1.084 7.191 0 14.33 2.062 20.463 6.081l313.482 204.343h254.259c123.283 0 223.591 100.308 223.591 223.617v328.367c0 123.283-100.308 223.591-223.591 223.591h-498.049zM437.664 341.975c21.68-21.68 56.816-21.68 78.496 0 21.706 21.68 21.706 56.843 0 78.549-21.68 21.653-56.816 21.653-78.496 0-21.706-21.706-21.706-56.869 0-78.549zM377.622 790.796c-39.816-41.482-38.706-98.933-38.442-105.331 0.899-21.732 19.168-38.706 40.927-37.728 21.706 0.899 38.6 19.194 37.728 40.9-0.026 0.291-0.159 30.246 16.551 47.642 9.465 9.862 23.557 14.621 43.121 14.621 18.639 0 49.89-6.477 49.89-49.89 0-20.358-10.020-30.722-30.88-50.418-24.614-23.266-58.376-55.124-58.376-115.536 0-21.732 17.608-39.341 39.367-39.341 21.732 0 39.341 17.608 39.341 39.341 0 25.355 10.946 36.829 33.709 58.323 23.451 22.155 55.547 52.454 55.547 107.631 0 88.358-66.678 128.597-128.597 128.597-51.74 0-82.858-21.124-99.885-38.812z" />
<glyph unicode="&#xe937;" glyph-name="barcode" d="M0 832h128v-640h-128zM192 832h64v-640h-64zM320 832h64v-640h-64zM512 832h64v-640h-64zM768 832h64v-640h-64zM960 832h64v-640h-64zM640 832h32v-640h-32zM448 832h32v-640h-32zM864 832h32v-640h-32zM0 128h64v-64h-64zM192 128h64v-64h-64zM320 128h64v-64h-64zM640 128h64v-64h-64zM960 128h64v-64h-64zM768 128h128v-64h-128zM448 128h128v-64h-128z" />
<glyph unicode="&#xe9cb;" glyph-name="link" d="M440.236 324.234c-13.31 0-26.616 5.076-36.77 15.23-95.134 95.136-95.134 249.934 0 345.070l192 192c46.088 46.086 107.36 71.466 172.534 71.466s126.448-25.38 172.536-71.464c95.132-95.136 95.132-249.934 0-345.070l-87.766-87.766c-20.308-20.308-53.23-20.308-73.54 0-20.306 20.306-20.306 53.232 0 73.54l87.766 87.766c54.584 54.586 54.584 143.404 0 197.99-26.442 26.442-61.6 41.004-98.996 41.004s-72.552-14.562-98.996-41.006l-192-191.998c-54.586-54.586-54.586-143.406 0-197.992 20.308-20.306 20.306-53.232 0-73.54-10.15-10.152-23.462-15.23-36.768-15.23zM256-52c-65.176 0-126.45 25.38-172.534 71.464-95.134 95.136-95.134 249.934 0 345.070l87.764 87.764c20.308 20.306 53.234 20.306 73.54 0 20.308-20.306 20.308-53.232 0-73.54l-87.764-87.764c-54.586-54.586-54.586-143.406 0-197.992 26.44-26.44 61.598-41.002 98.994-41.002s72.552 14.562 98.998 41.006l192 191.998c54.584 54.586 54.584 143.406 0 197.992-20.308 20.308-20.306 53.232 0 73.54 20.306 20.306 53.232 20.306 73.54-0.002 95.132-95.134 95.132-249.932 0.002-345.068l-192.002-192c-46.090-46.088-107.364-71.466-172.538-71.466z" />
<glyph unicode="&#xe9d7;" glyph-name="star-empty" horiz-adv-x="904" d="M1024 562.95l-353.78 51.408-158.22 320.582-158.216-320.582-353.784-51.408 256-249.538-60.432-352.352 316.432 166.358 316.432-166.358-60.434 352.352 256.002 249.538zM512 206.502l-223.462-117.48 42.676 248.83-180.786 176.222 249.84 36.304 111.732 226.396 111.736-226.396 249.836-36.304-180.788-176.222 42.678-248.83-223.462 117.48z" />
<glyph unicode="&#xe9d9;" glyph-name="star-full" horiz-adv-x="904" d="M1024 562.95l-353.78 51.408-158.22 320.582-158.216-320.582-353.784-51.408 256-249.538-60.432-352.352 316.432 166.358 316.432-166.358-60.434 352.352 256.002 249.538z" />
<glyph unicode="&#xe9da;" glyph-name="heart" horiz-adv-x="904" d="M755.188 896c-107.63 0-200.258-87.554-243.164-179-42.938 91.444-135.578 179-243.216 179-148.382 0-268.808-120.44-268.808-268.832 0-301.846 304.5-380.994 512.022-679.418 196.154 296.576 511.978 387.206 511.978 679.418 0 148.392-120.43 268.832-268.812 268.832z" />
<glyph unicode="&#xea15;" glyph-name="play2" d="M512 960c-282.77 0-512-229.23-512-512s229.23-512 512-512 512 229.23 512 512-229.23 512-512 512zM512 32c-229.75 0-416 186.25-416 416s186.25 416 416 416 416-186.25 416-416-186.25-416-416-416zM384 672l384-224-384-224z" />
<glyph unicode="&#xea16;" glyph-name="pause" d="M512 960c-282.77 0-512-229.23-512-512s229.23-512 512-512 512 229.23 512 512-229.23 512-512 512zM512 32c-229.75 0-416 186.25-416 416s186.25 416 416 416 416-186.25 416-416-186.25-416-416-416zM320 640h128v-384h-128zM576 640h128v-384h-128z" />
<glyph unicode="&#xea8b;" glyph-name="google-plus" d="M325.8 502.6v-111.8h184.8c-7.4-48-55.8-140.6-184.8-140.6-111.2 0-202 92.2-202 205.8s90.8 205.8 202 205.8c63.4 0 105.6-27 129.8-50.2l88.4 85.2c-56.8 53-130.4 85.2-218.2 85.2-180.2-0.2-325.8-145.8-325.8-326s145.6-325.8 325.8-325.8c188 0 312.8 132.2 312.8 318.4 0 21.4-2.4 37.8-5.2 54h-307.6zM1024 512h-96v96h-96v-96h-96v-96h96v-96h96v96h96z" />
<glyph unicode="&#xea93;" glyph-name="whatsapp" d="M873 811.2c-95.8 96-223.2 148.8-359 148.8-279.6 0-507.2-227.6-507.2-507.4 0-89.4 23.4-176.8 67.8-253.6l-72-263 269 70.6c74.2-40.4 157.6-61.8 242.4-61.8h0.2c0 0 0 0 0 0 279.6 0 507.4 227.6 507.4 507.4 0 135.6-52.8 263-148.6 359zM514.2 30.4v0c-75.8 0-150 20.4-214.8 58.8l-15.4 9.2-159.6-41.8 42.6 155.6-10 16c-42.4 67-64.6 144.6-64.6 224.4 0 232.6 189.2 421.8 422 421.8 112.6 0 218.6-44 298.2-123.6 79.6-79.8 123.4-185.6 123.4-298.4-0.2-232.8-189.4-422-421.8-422zM745.4 346.4c-12.6 6.4-75 37-86.6 41.2s-20 6.4-28.6-6.4c-8.4-12.6-32.8-41.2-40.2-49.8-7.4-8.4-14.8-9.6-27.4-3.2s-53.6 19.8-102 63c-37.6 33.6-63.2 75.2-70.6 87.8s-0.8 19.6 5.6 25.8c5.8 5.6 12.6 14.8 19 22.2s8.4 12.6 12.6 21.2c4.2 8.4 2.2 15.8-1 22.2s-28.6 68.8-39 94.2c-10.2 24.8-20.8 21.4-28.6 21.8-7.4 0.4-15.8 0.4-24.2 0.4s-22.2-3.2-33.8-15.8c-11.6-12.6-44.4-43.4-44.4-105.8s45.4-122.6 51.8-131.2c6.4-8.4 89.4-136.6 216.6-191.4 30.2-13 53.8-20.8 72.2-26.8 30.4-9.6 58-8.2 79.8-5 24.4 3.6 75 30.6 85.6 60.2s10.6 55 7.4 60.2c-3 5.6-11.4 8.8-24.2 15.2z" />
<glyph unicode="&#xea9d;" glyph-name="youtube" d="M1013.8 652.8c0 0-10 70.6-40.8 101.6-39 40.8-82.6 41-102.6 43.4-143.2 10.4-358.2 10.4-358.2 10.4h-0.4c0 0-215 0-358.2-10.4-20-2.4-63.6-2.6-102.6-43.4-30.8-31-40.6-101.6-40.6-101.6s-10.2-82.8-10.2-165.8v-77.6c0-82.8 10.2-165.8 10.2-165.8s10-70.6 40.6-101.6c39-40.8 90.2-39.4 113-43.8 82-7.8 348.2-10.2 348.2-10.2s215.2 0.4 358.4 10.6c20 2.4 63.6 2.6 102.6 43.4 30.8 31 40.8 101.6 40.8 101.6s10.2 82.8 10.2 165.8v77.6c-0.2 82.8-10.4 165.8-10.4 165.8zM406.2 315.2v287.8l276.6-144.4-276.6-143.4z" />
<glyph unicode="&#xeaba;" glyph-name="tumblr2" d="M928 960h-832c-52.8 0-96-43.2-96-96v-832c0-52.8 43.2-96 96-96h832c52.8 0 96 43.2 96 96v832c0 52.8-43.2 96-96 96zM731.8 135.4c-30.2-14.2-57.6-24.2-82-30-24.4-5.6-51-8.6-79.4-8.6-32.4 0-51.4 4-76.2 12.2s-46 19.8-63.6 34.8c-17.6 15.2-29.6 31.2-36.4 48.2s-10.2 41.6-10.2 74v247.8h-96v100c27.8 9 60 22 79.6 38.8 19.8 16.8 35.8 37 47.6 60.6 12 23.6 20.2 53.6 24.8 90h100.4v-163.2h163.6v-126.2h-163.4v-181.2c0-41-0.6-64.6 3.8-76.2s15.2-23.6 27-30.4c15.6-9.4 33.6-14 53.6-14 35.8 0 71.4 11.6 106.8 34.8v-111.4z" />
<glyph unicode="&#xeac9;" glyph-name="linkedin" d="M928 960h-832c-52.8 0-96-43.2-96-96v-832c0-52.8 43.2-96 96-96h832c52.8 0 96 43.2 96 96v832c0 52.8-43.2 96-96 96zM384 128h-128v448h128v-448zM320 640c-35.4 0-64 28.6-64 64s28.6 64 64 64c35.4 0 64-28.6 64-64s-28.6-64-64-64zM832 128h-128v256c0 35.4-28.6 64-64 64s-64-28.6-64-64v-256h-128v448h128v-79.4c26.4 36.2 66.8 79.4 112 79.4 79.6 0 144-71.6 144-160v-288z" />
</font>
</defs>
</svg>
