<?xml version="1.0" encoding="UTF-8" standalone="no"?>
<!DOCTYPE svg PUBLIC "-//W3C//DTD SVG 1.1//EN" "http://www.w3.org/Graphics/SVG/1.1/DTD/svg11.dtd">
<svg width="100%" height="100%" viewBox="0 0 20 24" version="1.1" xmlns="http://www.w3.org/2000/svg" xmlns:xlink="http://www.w3.org/1999/xlink" xml:space="preserve" style="fill-rule:evenodd;clip-rule:evenodd;stroke-linejoin:round;stroke-miterlimit:1.41421;">
    <g>
        <g transform="matrix(1,0,0,1,-1,0)">
            <path d="M3,22L3.576,8L5.848,8L5.848,9.944L7.768,9.944L7.768,8.03L13.944,8.03L13.944,9.974L15.864,9.974L15.864,8.031L18.168,8.031L19,22L3,22ZM8,4.985C8,3.354 9.33,2 11,2C12.67,2 14,3.323 14,4.985L14,6L8,6L8,4.985ZM20.063,6.91C20.03,6.408 19.603,6.015 19.1,6.023L15.891,6.023L15.891,4.978C15.891,2.25 13.645,0 10.853,0C8.06,0 5.813,2.22 5.813,4.978L5.813,6.024L2.606,6.024C2.096,6.03 1.672,6.435 1.643,6.944L1,23.016C1,23.27 1.096,23.523 1.257,23.714C1.442,23.903 1.698,24.007 1.963,23.999L20.03,23.999C20.287,23.999 20.544,23.904 20.736,23.714C20.926,23.535 21.021,23.276 20.993,23.016L20.063,6.91L20.063,6.91Z"/>
        </g>
        <g transform="matrix(1,0,0,1,-0.00103253,1)">
            <g transform="matrix(1,0,0,1,4.556,18.272)">
                <path d="M2.152,-4.704L2.152,0L3.72,0L3.72,-6.032L1.288,-6.032L1.288,-4.704L2.152,-4.704Z" style="fill-rule:nonzero;"/>
            </g>
            <g transform="matrix(1,0,0,1,9.044,18.272)">
                <path d="M3.136,-1.328L4.072,-2.2C4.688,-2.76 5.048,-3.264 5.048,-4.128C5.048,-5.44 3.984,-6.272 2.72,-6.272C1.296,-6.272 0.416,-5.336 0.368,-3.952L2.096,-3.952C2.08,-4.04 2.072,-4.128 2.072,-4.208C2.072,-4.616 2.304,-4.944 2.728,-4.944C3.144,-4.944 3.416,-4.544 3.416,-4.16C3.416,-3.608 3.08,-3.064 2.728,-2.68L0.264,0L5.112,0L5.112,-1.328L3.136,-1.328Z" style="fill-rule:nonzero;"/>
            </g>
        </g>
    </g>
</svg>
