<?xml version="1.0" encoding="UTF-8"?>
<svg width="40px" height="40px" viewBox="0 0 40 40" version="1.1" xmlns="http://www.w3.org/2000/svg" xmlns:xlink="http://www.w3.org/1999/xlink">
    <!-- Generator: Sketch Beta 47 (45292) - http://www.bohemiancoding.com/sketch -->
    <title>Close</title>
    <defs></defs>
    <g id="Symbols" stroke="none" stroke-width="1" fill="none" fill-rule="evenodd">
        <circle fill="#FFFFFF" cx="20" cy="20" r="18.656" opacity="0.5" />
        <g id="desk-Button_Close" fill-rule="nonzero" fill="#000000">
            <path d="M27.0865438,12.9134562 C26.6389726,12.465885 25.8930207,12.465885 25.4454495,12.9134562 L20,18.3589056 L14.5918481,12.9134562 C14.1442769,12.465885 13.398325,12.465885 12.9507538,12.9134562 C12.5031826,13.3610274 12.5031826,14.1069793 12.9507538,14.5545505 L18.3589056,20 L12.9134562,25.4081519 C12.465885,25.8557231 12.465885,26.601675 12.9134562,27.0492462 C13.1372418,27.2730318 13.4356226,27.3849246 13.7340034,27.3849246 C14.0323841,27.3849246 14.3307649,27.2730318 14.5545505,27.0492462 L20,21.6410944 L25.4081519,27.0865438 C25.6319375,27.3103294 25.9303183,27.4222222 26.2286991,27.4222222 C26.5270798,27.4222222 26.8254606,27.3103294 27.0492462,27.0865438 C27.4968174,26.6389726 27.4968174,25.8930207 27.0492462,25.4454495 L21.6410944,20 L27.0865438,14.5918481 C27.534115,14.1069793 27.534115,13.398325 27.0865438,12.9134562 Z" id="Shape"></path>
            <path d="M20,0 C8.93333333,0 0,8.93333333 0,20 C0,31.0666667 8.93333333,40 20,40 C31.0666667,40 40,31.0666667 40,20 C40,8.93333333 31.0666667,0 20,0 Z M32.8149871,32.8149871 C29.4007752,36.229199 24.8640827,38.1 20,38.1 C15.1826873,38.1 10.5992248,36.229199 7.18501292,32.8149871 C3.77080103,29.4007752 1.9,24.8640827 1.9,20 C1.9,15.1826873 3.77080103,10.5992248 7.18501292,7.18501292 C10.5992248,3.77080103 15.1359173,1.9 20,1.9 C24.8173127,1.9 29.4007752,3.77080103 32.8149871,7.18501292 C36.229199,10.5992248 38.1,15.1359173 38.1,20 C38.1,24.8173127 36.229199,29.4007752 32.8149871,32.8149871 Z" id="Shape"></path>
        </g>
    </g>
</svg>
