<svg xmlns="http://www.w3.org/2000/svg" width="32" height="32" viewBox="0 0 32 32">
    <path fill="#ffffff" fill-rule="evenodd" d="M4.688 0h22.625a4.694 4.694 0 0 1 4.682 4.473l.005.215v22.625a4.694 4.694 0 0 1-4.473 4.682l-.215.005H4.688a4.694 4.694 0 0 1-4.682-4.473L0 27.312V4.688A4.694 4.694 0 0 1 4.473.005L4.688 0h22.625H4.688zm11.375 7.5c-4.653 0-8.438 3.785-8.438 8.438 0 4.652 3.785 8.437 8.438 8.437 4.652 0 8.437-3.785 8.437-8.438 0-4.652-3.785-8.437-8.438-8.437zm0 1.875a6.57 6.57 0 0 1 6.562 6.563 6.57 6.57 0 0 1-6.563 6.562A6.57 6.57 0 0 1 9.5 15.937a6.57 6.57 0 0 1 6.563-6.562zm9.375-5.625a2.816 2.816 0 0 0-2.813 2.813 2.816 2.816 0 0 0 2.813 2.812 2.816 2.816 0 0 0 2.812-2.813 2.816 2.816 0 0 0-2.813-2.812zm0 1.875a.938.938 0 1 1-.002 1.876.938.938 0 0 1 .002-1.876z"/>
</svg>
