<svg xmlns="http://www.w3.org/2000/svg" width="32" height="32" viewBox="0 0 32 32">
    <path fill="#ffffff" fill-rule="evenodd" d="M30.24 1.76C29.067.587 27.653 0 26 0H6C4.347 0 2.934.587 1.76 1.76.587 2.934 0 4.347 0 6v20c0 1.652.587 3.066 1.76 4.24C2.934 31.413 4.347 32 6 32h20c1.653 0 3.066-.587 4.24-1.76C31.412 29.066 32 27.652 32 26V6c0-1.653-.587-3.066-1.76-4.24zm-5.76 10.553c.013.125.02.312.02.562 0 1.167-.17 2.337-.51 3.51a12.56 12.56 0 0 1-1.563 3.375 13.13 13.13 0 0 1-2.51 2.855c-.972.826-2.138 1.486-3.5 1.978-1.36.494-2.82.74-4.375.74-2.416 0-4.652-.653-6.708-1.958.333.042.68.063 1.042.063 2.014 0 3.826-.625 5.437-1.876a4.151 4.151 0 0 1-2.53-.875 4.446 4.446 0 0 1-1.553-2.166c.361.055.632.083.812.083.306 0 .66-.056 1.063-.166-1.014-.195-1.868-.698-2.563-1.51-.694-.813-1.041-1.74-1.041-2.782v-.042c.735.347 1.43.528 2.083.542C6.82 13.799 6.188 12.584 6.188 11c0-.778.201-1.514.604-2.208a12.4 12.4 0 0 0 4 3.229c1.57.805 3.25 1.257 5.042 1.354a4.021 4.021 0 0 1-.104-1c0-1.208.427-2.24 1.28-3.094C17.866 8.427 18.897 8 20.105 8c1.279 0 2.341.458 3.188 1.375a8.703 8.703 0 0 0 2.792-1.062c-.347 1.069-.993 1.881-1.937 2.437a9.274 9.274 0 0 0 2.52-.708 8.508 8.508 0 0 1-2.188 2.27z"/>
</svg>
